<svg width="496" height="50" viewBox="0 0 496 50" fill="none" xmlns="http://www.w3.org/2000/svg">
<path d="M10.4275 37.0633C20.7757 33.7613 27.9798 34.1037 37.6554 32.9482C49.1351 31.618 62.6839 29.944 76.0511 28.3236C87.1653 26.9759 98.3883 25.6379 108.187 24.5743C124.57 22.7962 141.123 21.1304 157.42 19.5274C158.249 19.4458 158.758 19.5285 159.135 19.4916C162.693 19.1424 168.639 18.4167 172.187 18.0779C179.607 17.3658 192.534 16.0697 199.353 15.5387C202.243 15.3124 205.221 15.0489 206.37 15.2598C207.426 15.1751 207.974 14.8329 208.248 14.7909C208.252 14.7909 208.255 14.7909 208.258 14.7909C209.141 14.6576 211.403 14.6455 211.898 14.586C211.972 14.577 211.496 14.4122 212.704 14.3611C212.811 14.3564 212.726 14.5071 213.738 14.4133C214 14.3888 217.36 13.8529 218.326 13.749C221.541 13.4024 229.234 12.8596 233.084 12.5056C233.672 12.4517 234.003 12.338 234.624 12.2798C234.945 12.2497 235.434 12.2957 235.533 12.2862C235.965 12.2435 237.818 11.6638 237.213 12.5306C239.18 12.3006 238.576 12.0871 238.604 11.9102C240.748 11.6909 241.815 11.9774 242.338 11.5251C252.883 10.6257 263.431 9.75518 273.983 8.92117C273.98 8.85534 273.978 8.78951 273.976 8.72368C277.112 8.7253 278.123 8.1962 279.937 8.42963C281.03 8.25539 282.12 8.08177 283.208 7.90882C294.738 7.07565 306.256 6.19524 317.739 5.35211C334.358 4.13239 350.886 3.00084 367.368 2.17466C368.549 2.11566 368.854 2.24028 370.784 2.14729C372.927 2.04402 375.942 1.73934 378.767 1.61552C381.264 1.50512 384.913 1.48239 387.685 1.39253C388.307 1.37201 388.752 1.26573 388.822 1.26346C389.233 1.2507 389.257 1.39026 389.657 1.37855C390.142 1.36404 390.722 1.23752 391.278 1.22264C393.363 1.16575 395.581 1.04992 395.861 1.04239C397.134 1.01011 397.416 1.13793 397.521 1.13571C398.928 1.10339 398.395 0.998083 398.746 0.993139C400.55 0.969333 401.857 1.2348 404.333 0.859411C404.269 0.976267 404.205 1.09313 404.141 1.20999C406.04 1.21501 404.777 0.949494 405.163 0.88215C405.308 0.85611 409.426 0.770005 409.736 0.767659C410.835 0.755973 410.867 0.907919 410.962 0.907255C411.181 0.90565 413.967 0.655849 415.382 0.753143C417.059 0.868031 415.098 1.22862 415.515 1.27625C415.588 1.28405 417.328 1.20827 417.573 1.29959C417.833 1.3976 416.32 1.4331 416.345 1.47644C416.356 1.50586 418.892 1.65889 418.411 1.81586C418.012 1.97026 414.61 1.86974 413.879 1.9584C413.76 1.9729 413.99 2.14631 413.884 2.15571C413.449 2.18744 405.56 2.42052 405.214 2.40566C405.62 2.31126 406.025 2.21702 406.43 2.12292C405.888 2.13114 405.345 2.13963 404.801 2.1484C405.576 2.05862 406.331 1.96991 407.118 1.88069C405.939 1.24182 402.503 2.03364 402.363 2.375C402.306 2.53212 404.447 2.863 402.474 3.15961C402.777 3.18966 403.079 3.21979 403.381 3.25001C403.999 3.16468 404.615 3.0797 405.229 2.99508C404.817 2.96655 404.405 2.93818 403.991 2.90997C404.142 2.85847 404.292 2.807 404.442 2.75554C405.594 2.64432 406.737 2.53441 407.904 2.42483C408.502 2.44165 408.382 2.58318 408.792 2.59783C413.892 2.78825 410.549 2.45504 413.903 2.42532C414.383 2.48665 414.862 2.54818 415.339 2.60992C415.169 2.30802 416.627 2.46219 418.43 2.28634C418.218 2.39064 418.005 2.49498 417.792 2.59935C420.398 2.4804 425.648 2.86808 424.222 2.35178C424.819 2.38578 425.414 2.42008 426.007 2.45467C426.505 2.35503 427.003 2.25559 427.499 2.15636C428.191 2.15299 428.892 2.14978 429.586 2.14708C429.59 2.19543 429.594 2.24378 429.598 2.29213C429.044 2.30276 428.489 2.31364 427.933 2.32477C428.353 2.46414 428.773 2.60365 429.192 2.74331C429.6 2.7111 430.008 2.67902 430.415 2.64707C428.701 2.53917 430.955 2.26941 431.494 2.06529C432.925 1.96792 433.861 2.20544 434.345 2.20887C434.575 2.2101 437.242 1.72225 436.202 2.22877C437.57 2.14795 438.955 2.0682 440.333 1.98984C440.872 2.02007 441.41 2.05051 441.948 2.08115C440.786 2.32448 444.164 2.55614 441.68 2.68281C439.821 2.77836 439.356 2.5719 438.468 2.5861C437.663 2.59887 437.255 2.74877 436.388 2.76853C430.546 2.90021 425.804 2.96604 420.261 3.03081C419.167 3.04353 418.169 3.13833 417.428 3.14684C416.6 3.15607 417.631 2.94991 416.58 3.02014C415.477 3.09447 415.239 3.24808 414.947 3.2586C414.765 3.26501 414.183 3.14779 413.649 3.16208C411.436 3.22048 408.271 3.44094 407.947 3.45019C407.575 3.45731 401.42 3.53149 401.101 3.52279C400.942 3.5163 401.252 3.01647 399.914 3.58311C399.492 3.6071 399.068 3.63127 398.644 3.65561C398.709 3.5556 398.775 3.45559 398.84 3.35559C396.336 3.81326 397.182 3.57601 394.758 3.69277C388.935 3.97227 380.367 4.2459 374.016 4.5823C372.595 4.65724 372.038 4.80084 370.379 4.88995C368.837 4.97132 364.711 4.83151 365.628 5.2692C362.164 5.02783 361.632 5.78066 359.86 5.42439C359.651 5.50121 359.442 5.57807 359.233 5.65498C357.35 5.47563 356.786 5.75401 354.723 5.90351C353.831 5.96853 354.846 5.61161 353.059 6.04632C352.708 6.04144 352.373 6.03574 352.032 6.0305C352.107 5.95375 352.181 5.87701 352.256 5.80028C350.288 5.97249 350.152 5.94332 350.395 6.20025C349.436 6.20661 348.471 6.21385 347.502 6.22199C347.388 6.31782 347.273 6.41367 347.158 6.50953C347.635 6.6263 369.418 5.17827 372.442 4.98281C376.039 5.00898 383.142 4.44411 386.048 4.37591C387.202 4.348 387.72 4.52795 389.384 4.48651C391.068 4.44423 393.178 4.18218 394.063 4.14322C397.041 3.99856 411.132 3.59181 401.546 4.14924C401.827 4.238 402.107 4.32684 402.387 4.41575C406.197 3.95917 404.792 4.20945 407.972 4.14787C409.314 4.12199 412.443 3.81582 412.288 4.26568C409.844 4.41544 407.176 4.35197 405.054 4.42475C404.844 4.43167 402.309 4.71538 400.986 4.70471C399.813 4.69382 400.611 4.24143 398.063 4.80602C396.137 4.40764 395.037 4.87066 394.545 4.93352C393.682 5.04309 393.579 4.81712 392.708 4.82299C391.76 4.82911 391.109 5.0068 390.979 5.01279C389.676 5.0631 382.889 5.36247 382.597 5.28499C382.866 5.23273 383.135 5.18053 383.403 5.12841C381.655 5.13717 382.028 5.35666 381.569 5.40451C381.225 5.41852 380.881 5.43264 380.537 5.44688C380.671 5.39224 380.806 5.33762 380.94 5.28302C378.862 5.38478 380.457 5.48285 377.502 5.61119C375.649 5.69196 373.7 5.59786 373.518 5.6203C373.464 5.62679 374.062 5.72403 373.296 5.77707C372.014 5.86515 369.86 5.96702 369.604 5.80908C368.988 5.86355 369.049 6.02772 368.967 6.03555C368.604 6.06764 362.441 6.43904 361.33 6.51041C358.238 6.70173 354.857 6.85282 351.532 7.07257C351.193 7.09491 351.404 6.97552 351.064 6.9986C350.522 7.03494 347.709 7.36832 347.282 7.40606C346.203 7.49887 343.483 7.597 343.042 7.67322C342.98 7.68389 343.898 7.7727 342.838 7.8826C341.66 8.00483 342.284 7.77143 342.22 7.77342C339.797 7.85628 338.296 8.08695 336.666 8.21733C336.137 8.25956 335.146 8.17647 334.395 8.26866C334.308 8.2792 334.489 8.40314 334.404 8.41532C333.271 8.56006 332.178 8.38017 331.699 8.39548C330.507 8.43444 331.166 8.57667 331.105 8.58206C330.312 8.64051 329.236 8.64512 328.018 8.7362C324.433 9.00415 321.42 9.22755 318.032 9.47197C316.272 9.59919 314.435 9.73037 312.419 9.87373C311.693 9.92545 310.817 9.85891 310.705 9.867C310.361 9.89342 310.474 10.0391 309.492 10.1085C307.421 10.2544 305.488 10.4072 303.409 10.5625C302.989 10.5939 302.804 10.4652 302.489 10.4861C301.438 10.557 297.847 11.2087 297.748 10.7514C295.66 11.326 294.24 11.0826 292.549 11.2204C288.525 11.547 282.253 12.1397 278.236 12.4196C277.395 12.4777 276.991 12.3921 276.522 12.4246C275.688 12.4814 270.86 12.9533 270.619 12.9554C270.124 12.9613 270.377 12.4139 267.88 13.0838C266.395 13.2429 266.552 13.014 266.243 13.0287C263.83 13.1481 261.542 13.8272 261.94 13.3518C259.164 13.7112 257.371 14.1116 256.194 13.802C256.226 14.0005 254.92 14.2353 253.335 14.298C254.923 13.8206 254.704 13.6227 258.634 13.3423C258.696 13.3379 258.59 13.4926 258.652 13.4882C259.213 13.4492 260.374 13.275 261.327 13.2006C262.28 13.1262 261.76 13.2706 262.14 13.2359C262.489 13.2038 262.466 13.0666 262.97 13.0212C264.612 12.8744 266.068 12.7116 267.001 12.6296C267.589 12.578 268.257 12.6435 268.713 12.6048C270.467 12.4546 274.217 12.0435 276.461 11.8707C276.928 11.8349 276.744 11.9875 277.766 11.9141C277.885 11.9055 278.309 11.7273 279.199 11.6241C280.093 11.5207 280.801 11.5336 281.377 11.4715C281.858 11.4197 281.647 11.3098 282.635 11.2211C283.454 11.1449 292.796 10.486 293.296 10.4696C294.024 10.4414 294.382 10.5917 294.822 10.5354C294.9 10.5246 295.016 10.343 295.287 10.3095C299.785 9.74947 309.632 9.23694 314.789 8.86576C315.863 8.78773 316.923 8.71025 317.973 8.63334C327.454 7.93943 336.407 7.26099 346.103 6.64271C346.296 6.60118 346.489 6.5597 346.681 6.51825C345.577 6.58304 344.514 6.64614 343.421 6.71176C343.409 6.63145 343.397 6.55113 343.385 6.47082C341.912 6.54825 342.117 6.72763 342.166 6.84017C341.616 6.82498 341.065 6.81007 340.512 6.79545C340.032 7.10726 336.431 7.14641 334.538 7.27038C333.311 7.34983 331.854 7.5534 331.224 7.58683C329.873 7.65904 329.895 7.48358 329.788 7.48782C329.608 7.49579 327.724 7.77567 326.343 7.86404C324.292 7.99577 324.098 7.74084 321.339 8.16084C320.246 8.19476 319.112 8.25189 317.95 8.32405C315.389 8.48251 312.676 8.71822 310.018 8.93082C310.723 8.6309 307.339 9.11614 305.786 9.22988C296.36 9.91411 284.771 10.7348 275.223 11.4353C273.996 11.5254 273.054 11.4584 272.369 11.5208C271.998 11.5545 271.849 11.7391 271.331 11.76C271.241 11.7632 271.165 11.6086 270.209 11.6652C267.834 11.804 261.901 12.5814 260.384 12.4048C252.233 13.1583 244.108 13.9293 235.966 14.7187C235.756 14.6721 235.545 14.6254 235.335 14.5788C233.819 15.0525 227.686 15.4183 224.707 15.7119C219.463 16.227 212.78 16.9625 208.185 17.4133C207.187 17.5111 206.362 17.4947 205.417 17.5872C205.01 17.6273 204.515 17.7985 204.091 17.8399C199.339 18.3056 192.891 18.8055 188.11 19.2796C177.241 20.3563 167.008 21.3676 155.998 22.5056C129.36 25.2651 102.775 28.2248 76.4036 31.3326C65.9758 32.5663 55.7436 33.8048 45.3958 35.1414C44.9225 35.2026 44.9089 35.0617 44.5231 35.1115C42.2641 35.4003 37.2359 36.1998 34.7188 36.5521C32.6667 36.835 29.4701 37.0853 28.7746 37.4112C36.0013 36.6659 43.6474 35.6186 51.1046 34.7592C51.6407 34.6973 51.7265 34.8221 51.7929 34.8162C53.0265 34.7066 52.2568 34.6171 53.9785 34.3913C54.5538 34.3139 60.0444 34.0649 59.3424 33.7218C60.7496 33.7162 69.7872 32.7097 71.6241 32.4387C72.1481 32.3591 71.7607 32.2775 71.8644 32.2587C72.3155 32.1771 72.5425 32.3261 72.9531 32.2821C73.7229 32.1987 75.3501 31.9383 76.4546 31.7682C76.8909 31.7 77.2375 31.6473 77.392 31.6296C78.5706 31.4928 82.365 31.1956 83.9209 30.9832C85.3962 30.7827 85.0982 30.6333 86.392 30.4681C87.4074 30.3391 86.346 30.6148 88.5909 30.4052C89.6722 30.3042 93.6467 29.7433 94.5732 29.6393C95.512 29.5335 96.5754 29.5238 97.8946 29.3675C99.84 29.1373 103.86 28.6287 105.829 28.3762C105.945 28.3614 106.213 28.1889 106.501 28.1601C107.086 28.1015 106.927 28.2954 107.367 28.2648C107.78 28.2359 115.496 27.3689 116.776 27.2331C117.675 27.1364 118.288 26.9648 118.789 26.9115C119.182 26.8699 119.239 27.0106 119.641 26.9687C119.771 26.9547 120.801 26.7156 121.838 26.6067C122.813 26.5042 126.596 26.2192 127.042 26.1729C127.325 26.143 127.013 26.072 127.84 25.986C128.596 25.9077 129.109 25.9885 129.542 25.9443C130.548 25.8414 131.664 25.607 132.741 25.492C135.853 25.1602 135.677 25.3473 135.87 25.3323C136.38 25.2935 136.568 25.1198 136.735 25.099C137.44 25.0116 139.177 24.8001 139.813 24.7273C140.604 24.6367 140.955 24.7459 141.8 24.6577C142.43 24.5915 143.657 24.3205 145.08 24.1649C148.297 23.8124 152.102 23.391 155.264 23.0708C156.208 22.9751 156.367 23.092 156.657 23.0657C158.18 22.9274 158.993 22.6952 159.426 22.6527C162.498 22.3509 168.013 22.0244 170.872 21.7564C172.052 21.645 177.102 21.0296 179.991 20.7617C180.321 20.7309 180.023 20.8651 180.388 20.8124C181.263 20.6862 181.16 20.4836 181.603 20.446C181.816 20.4286 182.314 20.4991 182.938 20.4492C186.168 20.1908 188.398 19.8783 189.871 19.7401C204.034 18.4108 218.501 17.0915 231.74 15.8954C233.217 15.7618 235.036 15.4687 237.274 15.3881C237.349 15.4474 237.423 15.5067 237.498 15.566C237.57 15.4945 237.642 15.4231 237.714 15.3516C240.234 15.0878 241.186 14.9184 243.77 14.7689C243.992 14.7559 244.697 14.9943 245.082 14.5852C247.657 14.6264 246.231 14.4803 248.128 14.286C250.025 14.0921 251.875 14.0121 253.712 13.8695C254.73 13.9139 250.533 14.593 250.256 14.617C249.812 14.6551 249.334 14.5113 248.905 14.5395C247.634 14.6228 246.421 14.8788 246.124 14.7392C244.506 15.0596 246.532 14.7906 246.342 14.9659C245.246 14.9983 244.148 15.0311 243.051 15.0643C242.543 15.6474 236.441 15.4977 236.9 15.8666C236.413 15.8288 235.925 15.7911 235.438 15.7535C233.381 16.4556 232.108 16.2098 229.287 16.3167C229.495 16.3633 229.704 16.4099 229.912 16.4564C229.858 16.4888 227.39 16.8219 228.25 16.4622C225.744 17.0632 225.795 16.4444 223.559 17.0965C222.212 17.2791 223.002 16.9472 220.58 17.1782C219.145 17.315 217.377 17.616 215.776 17.7766C215.407 17.8131 215.232 17.6802 214.904 17.7113C214.576 17.7424 214.429 17.9026 214.032 17.9439C213.21 18.0296 212.133 18.029 211.62 18.0876C211.161 18.1398 210.514 18.3304 209.407 18.4563C205.541 18.8971 206.695 18.6029 206.077 18.5994C205.415 18.5965 204.962 18.883 203.648 18.9812C203.516 18.991 203.842 18.8081 203.415 18.8552C203.07 18.893 202.912 19.0728 201.773 19.2134C201.321 19.2685 194.266 19.9884 193.19 20.0975C191.545 20.2625 187.865 20.4846 186.154 20.6547C185.497 20.7196 184.808 20.92 184.11 20.9881C181.811 21.2127 178.084 21.5725 175.161 21.8593C172.538 22.1158 167.84 22.2987 166.437 22.7049C162.735 23.115 161.799 22.9861 161.522 23.0112C160.766 23.08 160.431 23.2635 159.482 23.3676C147.177 24.7119 130.887 26.3287 119.216 27.6078C104.993 29.1642 90.7634 30.7791 76.5358 32.4607C63.5975 33.9949 50.6407 35.5709 37.7581 37.3149C37.6931 37.3903 37.6282 37.4657 37.5635 37.541C40.74 37.1437 44.6233 36.7417 47.7238 36.366C51.952 35.8493 58.177 34.7959 61.3703 34.8594C60.0781 35.0572 58.0312 35.1369 58.0993 35.3616C60.3259 35.1021 62.5984 34.8405 64.8438 34.5852C64.7632 34.4874 64.6827 34.3895 64.6022 34.2917C67.0287 33.9663 69.3131 33.7161 71.7286 33.4141C72.1292 33.364 71.8336 33.3014 72.1835 33.2595C72.5758 33.2126 72.3214 33.3421 72.395 33.3342C73.3892 33.2175 73.6853 33.0822 73.8076 33.0692C74.1243 33.0358 73.887 33.1594 74.8065 33.0779C75.5015 33.0165 76.1181 32.9142 76.5809 32.8457C77.2226 32.7498 77.5503 32.7242 77.3477 32.9992C77.883 32.9366 78.4224 32.8736 78.9658 32.8103C79.0932 32.6802 79.221 32.5501 79.349 32.4199C82.8176 32.482 84.1865 31.509 86.1434 31.932C86.7476 31.7639 87.3625 31.5946 87.969 31.4265C88.3196 31.5017 88.6714 31.5768 89.0245 31.6518C89.0796 31.5466 89.1348 31.4414 89.1901 31.3362C92.48 31.0343 95.966 30.5225 99.1416 30.1789C101.371 29.9377 101.845 29.9241 103.799 29.6996C108.147 29.2013 103.861 29.8716 107.482 29.6834C107.284 29.584 107.087 29.4846 106.889 29.3852C107.471 29.2766 108.055 29.1678 108.641 29.0589C109.064 29.1112 109.487 29.1635 109.912 29.2157C111.693 28.5073 112.949 28.784 113.202 28.7564C113.418 28.7319 114.051 28.3537 116.249 28.3759C115.303 28.0568 117.906 28.1932 118.116 28.1731C118.308 28.1539 120.826 27.7869 121.814 27.6844C122.604 27.6022 124.308 27.5095 125.501 27.377C126.554 27.2601 126.433 27.1299 126.51 27.1201C127.808 26.9693 127.017 27.1652 127.939 27.0719C128.862 26.9787 129.57 26.7812 129.771 26.7706C129.872 26.7656 129.549 26.9335 130.012 26.897C131.253 26.7997 133.503 26.4437 134.938 26.2953C135.438 26.2434 136.081 26.2885 136.641 26.2328C137.499 26.1471 137.886 25.956 138.387 25.9076C138.562 25.8912 139.697 26.0037 141.085 25.8222C141.346 25.7876 142.085 25.2188 143.169 25.8013C143.237 25.6962 143.306 25.591 143.374 25.4859C147.955 24.7642 149.386 25.4122 151.343 24.5032C154.707 24.234 152.431 24.7444 152.804 24.748C153.044 24.7498 154.134 24.5616 154.256 24.5534C154.47 24.5397 154.443 24.6308 154.677 24.6062C158.984 24.1463 157.058 24.1782 158.401 23.9346C161.594 23.356 164.17 23.6506 158.546 24.0588C158.551 24.1075 158.556 24.1563 158.561 24.205C159.93 24.0173 163.451 23.6803 162.301 24.0474C161.397 24.3354 153.051 25.0646 157.81 24.8516C158.881 24.8041 159.413 24.5646 161.303 24.7179C162.532 24.6111 162.663 24.1488 164.351 24.1571C164.06 24.0301 163.77 23.903 163.48 23.776C165.752 23.3403 168.538 23.3317 170.281 23.0682C170.869 22.9788 172.935 22.0242 172.511 22.8133C173.509 22.6659 178.187 22.3348 179.06 22.1813C179.265 22.1448 179.511 21.7223 182.548 21.5594C182.763 21.5879 182.978 21.6164 183.193 21.6449C180.443 22.0624 185.34 21.7239 184.051 22.2288C183.581 22.1057 181.385 22.2204 181.019 22.1716C180.398 22.0867 182.185 21.7198 179.889 21.9998C178.502 22.7681 182.617 22.0686 182.04 22.7245C185.012 22.1502 185.343 22.3845 186.024 22.3281C188.947 22.0846 190.77 21.8422 193.522 21.643C194.176 21.456 189.201 21.7658 188.581 21.8802C190.815 21.225 186.895 21.5906 185.275 22.0097C185.124 21.893 184.973 21.7763 184.822 21.6596C186.968 21.5186 189.084 21.347 191.184 21.033C191.327 21.0682 191.47 21.1035 191.613 21.1387C191.144 21.2587 190.676 21.3788 190.208 21.4988C191.982 21.4462 190.887 21.1695 193.271 21.2727C193.33 21.1187 193.388 20.9647 193.447 20.8108C195.708 20.6391 197.977 20.4677 200.232 20.2988C201.376 19.8905 205.735 19.5821 204.975 20.04C206.734 19.8984 204.548 19.9033 206.182 19.6529C206.892 19.5442 208.287 19.3995 208.642 19.4692C208.528 19.8464 206.443 20.0912 205.836 20.4012C206.221 20.4436 215.928 19.259 215.098 19.7674C215.879 19.7451 215.501 19.56 216.896 19.372C220.805 18.8454 226.926 18.712 230.036 17.8789C226.297 17.9192 225.229 18.3414 222.386 18.6193C220.568 18.7948 209.501 19.894 211.937 19.2764C211.535 19.3638 211.132 19.4513 210.73 19.5387C210.308 19.4636 209.886 19.3885 209.464 19.3135C210.621 19.1865 211.779 19.0599 212.937 18.9334C213.225 19.0212 213.512 19.1089 213.8 19.1967C213.92 19.1032 214.041 19.0097 214.16 18.9162C214.646 18.854 215.132 18.7917 215.618 18.7295C215.49 18.8403 215.363 18.951 215.235 19.0618C215.988 19.0075 216.741 18.9534 217.495 18.8994C217.28 18.7877 217.065 18.676 216.85 18.5644C220.388 18.1983 219.197 18.3931 221.185 18.4535C222.654 18.3414 220.153 18.3215 223.25 17.968C226.851 17.5583 224.521 18.177 229.186 17.6595C229.248 17.5881 229.309 17.5166 229.37 17.4452C230.403 17.4157 231.438 17.3863 232.472 17.3573C232.328 17.2886 232.185 17.22 232.042 17.1513C234.167 16.9878 237.075 16.567 237.806 16.8216C235.643 16.8636 235.715 17.4177 236.283 17.4689C237.453 17.5676 254.488 15.8462 257.794 15.5518C262.02 15.1661 265.232 15.0695 269.069 14.4681C266.432 14.4633 257.252 15.4418 255.484 15.4423C255.31 15.4423 255.314 14.9284 254.256 15.5989C250.679 15.8151 246.407 16.3579 241.942 16.7435C242.065 16.5845 242.189 16.4255 242.312 16.2666C245.088 16.3311 247.562 15.4204 247.257 16.0218C247.805 15.973 248.353 15.9242 248.9 15.8756C248.891 15.7775 248.883 15.6793 248.874 15.5811C249.699 15.5078 250.524 15.4348 251.348 15.3619C251.356 15.4601 251.365 15.5583 251.374 15.6564C252.056 15.5961 252.738 15.536 253.42 15.476C253.482 15.3719 253.545 15.2678 253.607 15.1636C255.662 15.1864 262.596 14.0372 259.58 14.8879C260.54 14.8046 261.499 14.7217 262.457 14.6391C262.448 14.5676 262.438 14.4961 262.429 14.4246C262.84 14.3794 263.248 14.3345 263.662 14.2892C263.532 14.3659 263.401 14.4426 263.271 14.5192C265.158 14.2396 266.984 14.4284 268.206 14.0981C267.383 14.1186 266.559 14.1394 265.734 14.1605C267.317 14.1187 270.19 13.6806 270.448 13.6585C271.234 13.591 271.661 13.7012 272.522 13.6362C273.298 13.5774 273.182 13.4749 273.326 13.4667C277.509 13.2311 275.967 13.9684 277.85 13.092C278.065 13.1725 278.279 13.2531 278.494 13.3337C278.762 13.2295 279.029 13.1254 279.297 13.0213C280.53 12.9272 281.769 12.8332 283.001 12.7403C282.58 12.6518 282.159 12.5634 281.737 12.475C283.582 12.2691 284.459 12.4444 284.639 12.4355C285.145 12.4087 285.363 12.2364 285.518 12.2235C293.036 11.6313 288.488 12.1334 292.289 12.411C293.608 12.0786 292.238 11.9586 292.029 11.7433C293.82 11.7101 294.349 11.6042 296.244 11.4686C296.737 11.4336 297.275 11.5167 297.585 11.4943C297.854 11.4749 298.681 11.2776 299.323 11.2274C300.394 11.1436 301.814 11.1136 303.275 11.0003C304.508 10.904 308.238 10.5285 310.819 10.3376C311.939 10.255 311.687 10.3848 311.976 10.3638C312.096 10.3549 312.957 10.1587 313.67 10.1062C315.133 9.99888 316.596 9.8981 318.056 9.80153C322.494 9.50737 326.912 9.25021 331.277 8.95944C335.407 8.68457 339.556 8.31328 343.701 8.07121C344.576 8.02038 344.119 8.14589 344.5 8.12616C344.631 8.11918 344.78 7.93937 346.128 7.92695C346.623 7.922 346.061 8.07479 346.548 8.05155C346.785 8.0403 346.88 7.88496 348.257 7.76944C350.756 7.55981 352.088 7.68345 352.31 7.66468C352.727 7.62938 352.59 7.51358 353.153 7.47704C355.908 7.2988 358.128 7.15582 360.578 7.01425C361.725 6.9441 369.536 6.52066 369.964 6.5254C370.922 6.52794 370.047 6.82855 371.269 6.7604C371.608 6.6787 371.946 6.59712 372.293 6.51518C371.731 6.4925 371.197 6.46867 370.647 6.44582C372.133 6.45632 373.881 6.25611 374.991 6.20899C375.2 6.20011 377.096 6.22953 378.058 6.17369C377.647 6.24066 377.244 6.3074 376.836 6.3745C376.983 6.40915 377.13 6.44381 377.276 6.47849C379.207 6.32803 381.283 6.23831 383.251 6.16369C383.963 6.13657 383.722 6.24714 384.455 6.21985C388.713 6.06542 387.578 5.6935 391.705 6.31719C390.302 6.29786 385.34 6.59737 384.588 6.60428C384.064 6.60765 382.095 6.02927 382.838 6.67732C378.79 6.84944 382.301 6.32096 378.497 6.57135C378.577 6.65073 378.657 6.73011 378.737 6.8095C377.4 6.92164 376.453 7.00709 375.639 6.8983C375.393 7.31128 370.87 7.2886 368.42 7.43925C364.825 7.65645 360.83 7.96442 357.314 8.17542C356.103 8.2479 355.403 8.12943 355.25 8.13842C355.027 8.15204 354.406 8.32513 353.957 8.35148C352.284 8.44841 347.246 8.50938 345.989 8.97016C355.868 8.37673 365.772 7.84574 375.652 7.38867C374.395 7.25369 384.393 6.78991 384.903 6.78442C385.376 6.77318 384.983 6.92183 385.124 6.92401C386.172 6.93725 387.05 6.70983 387.38 6.69653C387.631 6.68644 388.142 6.75579 389.03 6.71868C389.193 6.71196 389.234 6.61511 389.409 6.60794C390.574 6.56212 391.743 6.51856 392.911 6.47423C392.982 6.47247 393.283 6.60027 393.577 6.58956C393.873 6.57856 394.159 6.42905 394.234 6.42588C395.157 6.3927 396.781 6.42469 397.673 6.39456C397.982 6.38368 397.764 6.28948 398.111 6.27836C399.175 6.24396 398.833 6.45493 400.14 6.3592C400.58 6.32712 400.54 6.17593 401.387 6.16786C401.991 6.16221 401.934 6.43576 402.03 6.44247C402.164 6.44977 404.227 6.16865 404.904 6.32558C403.448 6.84049 406.512 6.29989 406.356 6.10714C407.173 6.13204 408.004 6.15705 408.823 6.18295C409.101 6.12466 409.379 6.06645 409.656 6.00831C412.936 6.14039 414.981 5.95043 418.216 5.94035C418.376 5.9394 421.117 5.9862 420.988 6.0601C419.363 6.21873 417.703 6.26494 416.663 6.06691C414.956 6.53825 414.924 6.1972 412.123 6.33025C411.197 6.37509 411.135 6.49307 411.028 6.49751C407.413 6.65463 401.584 6.89054 399.151 6.63653C398.473 6.75142 400.924 6.70439 399.974 6.80426C399.466 6.8485 386.89 7.4295 390.897 6.88777C390.479 6.91471 390.056 6.94202 389.642 6.9691C389.245 7.35349 387.18 7.35175 387.398 6.97541C387.206 7.05845 387.013 7.14153 386.819 7.22464C386.434 7.30398 385.977 7.35678 385.331 7.40376C382.88 7.56741 368.217 8.12227 367.443 8.22643C367.43 8.31437 367.416 8.4023 367.403 8.49024C373.85 8.26526 380.154 7.75833 387.215 7.7217C387.007 7.64831 386.798 7.57496 386.59 7.50166C389.394 7.50185 392.246 7.50625 395.042 7.51892C392.082 7.77373 387.352 8.08322 384.195 8.09512C383.635 8.09694 384.04 7.96581 383.911 7.9574C383.579 7.93558 383.233 8.1479 382.04 8.21849C380.854 8.28815 377.798 8.28421 377.538 8.30049C377.011 8.33242 375.592 8.62401 374.684 8.66374C373.491 8.71578 374.284 8.53835 374.044 8.54665C373.056 8.57941 372.147 8.69244 371.388 8.71878C370.251 8.75803 367.85 8.63051 367.057 9.033C367.884 9.00778 368.708 8.98323 369.528 8.95934C365.06 9.31014 361.564 9.03019 357.208 9.6266C356.24 10.1184 359.845 9.86101 356.804 10.2154C357.359 10.1785 357.912 10.1418 358.464 10.1055C358.588 10.0068 358.712 9.90822 358.837 9.80962C359.782 9.82381 360.772 9.83629 361.732 9.851C361.453 9.78391 361.174 9.7169 360.895 9.64996C364.3 9.40593 367.713 9.15058 368.93 9.53046C368.994 9.42089 369.059 9.31132 369.124 9.20175C372.25 9.17469 377.011 8.50456 376.141 9.13673C376.288 9.09858 376.435 9.06045 376.583 9.02234C378.485 9.05651 377.654 8.8498 378.377 8.78949C378.589 8.77136 382.309 8.73442 380.671 8.98189C384.289 8.95909 383.142 8.4568 384.137 8.39006C386.494 8.5636 390.607 7.99113 388.886 8.49195C389.229 8.49458 389.57 8.49741 389.915 8.50017C391.046 8.11543 392.182 8.45721 393.412 8.54012C393.827 8.53232 394.242 8.52468 394.655 8.51721C394.928 8.39263 395.2 8.26813 395.472 8.1437C399.429 8.54748 398.127 7.10352 399.955 8.29339C399.681 8.37766 399.406 8.462 399.13 8.54641C398.472 8.60463 397.812 8.66326 397.15 8.72231C399.819 8.66093 402.483 8.6053 405.147 8.5552C408.534 8.80158 410.439 8.36479 414.219 8.54134C414.571 8.49869 414.922 8.45615 415.272 8.41372C414.921 8.70661 413.558 8.70008 416.098 8.7617C416.32 8.95651 414.609 9.02641 413.819 8.8939C413.629 8.86142 415.234 8.66499 413.425 8.70787C412.197 8.73759 414.419 8.91669 410.756 8.92943C410.892 8.97456 411.029 9.01971 411.166 9.06488C410.77 9.07458 410.373 9.08443 409.975 9.09442C409.619 8.99126 409.261 8.88821 408.903 8.78528C408.002 8.97567 407.468 9.22037 405.409 9.2352C405.968 9.14689 405.201 8.94263 404.173 8.97911C404.175 9.0611 404.178 9.14309 404.18 9.22508C401.691 9.35773 402.526 9.0899 400.471 9.34637C400.263 9.28812 400.054 9.2299 399.846 9.17173C398.741 9.47686 394.559 9.80984 395.315 9.37982C394.176 9.81261 391.723 9.72815 390.792 9.45115C390.725 9.53527 390.657 9.6194 390.59 9.70353C390.101 9.73905 389.618 9.77447 389.139 9.80995C388.869 9.77132 388.598 9.73276 388.327 9.69428C387.987 9.75717 387.647 9.82017 387.306 9.88328C387.096 9.80999 386.885 9.73673 386.674 9.66352C386.126 9.78396 385.576 9.90469 385.024 10.0257C384.682 9.97468 384.337 9.92387 383.996 9.87296C383.972 10.044 380.646 10.2246 379.697 10.1555C379.419 10.2174 379.141 10.2794 378.863 10.3415C378.722 10.2665 378.581 10.1916 378.44 10.1167C378.233 10.191 378.029 10.2652 377.827 10.3393C377.351 10.2959 376.874 10.2526 376.396 10.2096C374.473 10.6967 374.389 10.3518 373.944 10.3751C373.108 10.4186 370.324 10.8027 369.857 10.8133C369.389 10.8233 369.156 10.6919 368.777 10.6973C362.497 10.789 365.117 11.0425 363.864 11.1671C363.193 11.2351 362.709 11.1271 362.112 11.1734C361.075 11.2512 355.961 11.7072 355.657 11.7083C355.223 11.7077 356.207 11.0232 354.809 11.2638C354.78 11.6029 351.749 11.4343 353.179 11.8242C351.951 11.8528 350.724 11.8823 349.485 11.9135C349.649 12.3046 348.112 12.1367 346.436 12.2595C344.136 12.4267 338.796 13.0238 338.991 12.6014C338.44 12.7306 337.887 12.8602 337.332 12.9901C333.459 13.108 329.735 13.4902 325.873 13.7594C323.433 13.9297 320.938 14.1024 318.375 14.2798C309.251 14.9107 299.795 15.5639 290.959 16.2052C290.415 16.2445 290.483 16.1047 290.091 16.133C288.009 16.2838 282.733 16.8065 279.829 17.0173C278.913 17.0835 278.455 16.9903 278.164 17.0084C277.174 17.0691 277.421 17.2215 276.965 17.2544C276.251 17.3055 272.414 17.4661 271.107 17.5602C270.459 17.6065 269.705 17.8078 268.942 17.8301C268.877 17.8322 268.986 17.6814 268.93 17.6837C267.545 17.7841 268.387 17.8348 267.918 17.8683C264.565 18.1077 261.005 18.4117 257.372 18.6996C256.469 18.7709 255.081 18.7927 254.311 18.8511C254.016 18.8736 254.553 18.9338 253.536 19.0144C253.187 19.0421 253.056 18.9139 252.661 18.9396C250.962 19.0515 250.433 19.5474 248.941 19.3187C246.124 19.5923 241.243 20.1464 238.671 20.3826C238.064 20.4381 237.761 20.3831 237.182 20.4372C236.772 20.4755 236.061 20.6681 235.42 20.7282C234.78 20.7881 233.757 20.7598 232.524 20.8773C231.226 21.0009 229.62 21.2213 229.327 21.2479C228.974 21.2805 228.795 21.1432 228.442 21.1778C227.375 21.2812 224.529 21.6965 223.155 21.8412C221.678 21.9964 220.783 22.0057 220.278 22.0545C219.81 22.1005 219.276 22.2804 219.062 22.3016C218.73 22.3348 218.637 22.1918 218.215 22.2327C217.526 22.3001 216.824 22.4616 215.79 22.5618C197.153 24.3694 178.911 26.0867 160.767 27.8322C158.754 28.0259 157.626 28.2479 154.635 28.5078C153.426 28.6127 153.918 28.4052 152.984 28.5314C152.568 28.5878 152.686 28.6989 152.159 28.7593C149.853 29.0237 147.07 29.1991 146.068 29.3058C145.666 29.3483 145.222 29.5347 144.402 29.6225C138.244 30.2823 131.005 31.0099 124.378 31.7474C120.909 32.1331 115.611 32.779 111.578 33.2311C100.488 34.4727 88.5483 35.7851 78.4549 36.9785C77.9949 37.0328 77.538 37.087 77.0842 37.141C62.2734 38.9097 47.5564 40.8098 32.9112 42.7634C40.0374 42.0686 49.6379 40.7828 57.6192 39.8289C64.0191 39.0617 70.5254 38.2867 77.127 37.5064C94.0341 35.5098 111.447 33.4859 128.394 31.6775C136.576 30.804 146.88 29.7136 155.844 28.8694C156.252 28.8308 157.087 28.6372 157.973 28.5576C158.157 28.5412 160.479 28.4995 161.259 28.4218C160.485 28.1519 163.569 28.1477 164.519 28.0428C165.727 27.9088 168.16 27.487 170.966 27.3025C173.51 27.1352 172.825 27.3386 172.966 27.3329C173.872 27.2961 174.157 27.0511 174.838 26.9609C177.616 26.5911 192.046 25.2874 196.061 24.9084C197.102 24.8091 197.145 24.9424 197.38 24.9201C198.004 24.8604 198.868 24.6407 199.86 24.5455C201.648 24.3744 203.724 24.3041 204.711 24.2097C207.074 23.9838 211.522 23.4059 214.592 23.1128C215.452 23.0305 215.413 23.1772 215.803 23.1399C217.517 22.975 221.977 22.3879 224.108 22.1884C227.57 21.8634 231.139 21.6264 234.657 21.2578C234.886 21.3006 235.115 21.3435 235.343 21.3864C235.689 21.2879 236.035 21.1894 236.381 21.091C242.337 20.5993 248.389 19.9136 254.306 19.403C254.982 19.3443 258.381 19.1692 258.942 19.1211C259.411 19.0804 259.859 18.8836 260.555 18.8465C261.529 18.7944 260.641 19.1719 262.22 18.9495C262.644 18.8896 262.22 18.7974 263.073 18.6838C263.348 18.6459 268.865 18.1219 269.156 18.107C269.649 18.0801 270.111 18.3168 270.239 18.3119C270.901 18.287 270.855 18.0793 271.295 18.0228C272.596 17.8551 274.331 17.8521 274.542 17.8313C277.113 17.5764 281.905 17.0117 284.618 16.8916C284.992 16.8751 284.96 17.0353 285.026 17.0351C285.451 17.0332 285.698 16.8337 286.099 16.7971C288.238 16.6033 291.685 16.4483 293.848 16.3085C294.098 16.2921 294.618 16.1648 295.064 16.1381C297.601 15.9875 296.795 16.1894 296.938 16.184C297.282 16.1719 297.873 15.973 298.782 15.893C301.116 15.686 305.606 15.3652 308.116 15.1901C309.99 15.0596 309.971 15.2362 310.094 15.2304C310.356 15.2173 311.071 15.0246 312.319 14.9171C314.709 14.7109 314.443 14.8681 315.421 14.7912C315.503 14.7853 315.352 14.6618 316.431 14.5701C316.95 14.5261 317.628 14.4806 318.386 14.4349C320.736 14.2925 323.813 14.1514 325.478 14.0323C326.342 13.9706 326.544 13.8273 327.432 13.7645C328.847 13.6635 332.002 13.5939 332.246 13.5778C332.316 13.5732 332.457 13.4149 332.869 13.3878C333.327 13.3578 333.781 13.4048 334.12 13.3822C336.06 13.2531 339.326 12.7863 338.446 13.3739C339.051 13.2043 339.641 13.0358 340.261 12.8657C344.312 12.6384 348.208 12.3518 352.179 12.097C353.06 12.0405 353.83 12.0974 354.59 12.0498C355.356 12.0009 358.677 11.6511 359.224 11.619C360.237 11.5566 365.874 11.2437 366.585 11.2214C367.973 11.1736 369.316 11.3268 369.872 11.2566C370.317 11.2001 369.898 11.0969 370.748 11.0203C372.197 10.8886 374.767 10.9262 375.21 10.9035C375.402 10.8936 375.04 10.8135 376.841 10.7238C377.81 10.6755 378.333 10.7583 378.694 10.7417C378.803 10.7363 378.634 10.5709 380.573 10.5086C381.909 10.4663 382.479 10.5751 382.618 10.5695C382.828 10.5615 383.324 10.3983 384.163 10.368C386.17 10.2951 389.723 10.3151 391.631 10.2551C391.994 10.2438 391.867 10.077 393.311 10.0385C394.342 10.0114 394.166 10.1544 394.552 10.1456C395.158 10.1317 396.069 9.93154 397.431 9.88887C399.12 9.82492 411.813 9.60545 412.447 9.64306C412.892 9.66094 413.405 9.64898 413.626 9.71706C413.44 9.793 413.254 9.86896 413.068 9.94495C411.11 9.74952 411.913 10.0123 411.399 10.0448C410.662 10.091 407.851 10.1365 407.165 10.2209C406.925 10.2511 407.474 10.3856 406.186 10.5029C404.803 10.6288 404.172 10.3795 403.628 10.7653C401.628 10.4203 399.732 10.9187 402.038 10.958C403.329 10.9699 415.884 10.7503 418.441 10.7221C420.528 10.6887 424.416 10.4919 426.967 10.4697C428.463 10.4555 432.178 10.4071 432.019 10.6063C433.346 10.6078 431.938 10.4374 432.216 10.4054C432.79 10.3377 436.978 10.4042 437.752 10.3885C441.654 10.304 446.536 10.0268 450.327 10.2385C450.151 10.2926 449.976 10.3467 449.8 10.4008C448.946 10.5044 445.018 10.4097 444.573 10.6674C450.328 10.599 456.079 10.5522 461.844 10.5209C461.736 10.3058 468.881 10.2772 469.222 10.3745C469.097 10.4785 468.971 10.5826 468.846 10.6868C464.802 10.3081 465.176 10.8274 462.456 10.5647C461.354 10.5666 461.688 10.7362 461.146 10.7718C455.736 11.1281 461.057 10.4196 456.914 10.6003C458.158 10.84 454.778 10.9544 453.25 10.9994C452.902 11.0083 448.368 10.9877 447.82 10.9985C444.804 11.0511 439.589 11.2542 436.584 11.1659C434.218 11.1865 432.902 11.3859 430.762 11.4654C429.129 11.5265 429.594 11.3937 428.822 11.4068C427.197 11.4346 426.693 11.8239 425.647 11.3171C424.557 11.4054 423.453 11.495 422.364 11.5852C422.362 11.5032 422.36 11.4212 422.359 11.3392C421.676 11.3544 420.992 11.3701 420.305 11.3862C420.105 11.4726 419.905 11.5591 419.705 11.6456C417.517 11.5861 418.423 11.367 418.008 11.1447C417.531 11.1405 417.066 11.1361 416.597 11.132C416.239 11.3195 415.88 11.507 415.521 11.6946C413.418 11.7345 411.312 11.7779 409.215 11.8245C409.077 11.7467 408.938 11.669 408.799 11.5913C408.797 11.6731 408.795 11.755 408.793 11.8368C405.226 11.9584 401.662 12.0899 398.12 12.2305C397.183 12.393 402.867 12.2988 403.313 12.2945C405.707 12.2575 412.097 11.9414 412.098 12.235C413.606 11.9743 418.071 11.9137 419.495 12.1421C417.352 12.1775 415.263 12.215 413.123 12.2574C413.195 12.3531 413.267 12.4489 413.338 12.5447C410.671 12.2235 410.312 12.2553 407.588 12.7086C407.582 12.5778 407.575 12.4469 407.569 12.316C405.687 12.8274 402.322 12.1628 402.236 12.7288C401.211 12.7169 400.222 12.7045 399.21 12.6937C397.043 12.84 400.412 13.1439 391.897 13.2908C391.307 13.3016 391.425 13.1536 390.535 13.1979C390.265 13.2116 388.848 13.4741 386.046 13.5676C385.608 13.5821 385.57 13.4593 385.114 13.4625C384.047 13.4691 382.014 13.8025 382.93 13.3623C378.8 13.4239 380.519 13.6794 379.239 13.8665C378.384 13.9916 378.537 13.7475 377.809 13.8342C376.901 13.9428 377.595 14.1479 373.918 14.2103C374.331 14.1746 374.742 14.139 375.153 14.1036C374.943 14.0484 374.732 13.9932 374.522 13.9381C372.433 14.1927 372.6 13.9574 371.647 14.3686C370.131 14.2792 368.819 14.3306 366.725 14.4663C362.693 14.7313 364.807 15.014 360.141 14.7322C359.388 14.8472 358.665 14.9609 357.923 15.0761C356.691 14.9875 357.673 14.7371 355.837 14.7997C357.301 15.1045 353.398 15.182 352.773 15.5635C352.701 15.4854 352.628 15.4074 352.556 15.3294C352.15 15.3527 351.744 15.3761 351.336 15.3997C351.339 15.4654 351.342 15.5312 351.344 15.5969C350.799 15.5791 350.252 15.5616 349.704 15.5444C349.298 15.6336 348.891 15.7229 348.483 15.8124C347.799 15.715 347.104 15.6186 346.424 15.5216C346.005 15.5373 345.585 15.5533 345.164 15.5693C345.303 15.6591 345.442 15.7488 345.581 15.8386C345.04 15.8385 344.497 15.8387 343.952 15.8391C344.592 15.9613 344.211 16.1728 342.516 16.2724C341.114 16.3554 342.674 15.9215 339.662 16.25C339.453 16.2734 339.112 16.5333 336.28 16.7521C332.869 17.0172 334.514 16.7374 333.904 16.7709C333.783 16.7778 332.742 16.9666 331.784 17.0474C331.237 17.0934 330.7 17.0317 330.628 17.0368C330.288 17.0639 330.199 17.2078 329.727 17.2443C328.533 17.3362 326.903 17.3791 325.723 17.4671C325.195 17.5062 324.703 17.6219 324.467 17.6392C324.1 17.6655 323.625 17.5736 323.253 17.6C321.879 17.6979 319.802 18.2587 319.113 17.7328C318.97 17.801 318.808 17.8565 318.633 17.9017C317.252 18.2657 315.039 17.9538 315.242 18.255C311.661 18.3764 302.247 19.5241 302.489 18.9118C300.53 19.5719 300.678 19.1917 299.839 19.2641C298.898 19.3454 299.394 19.4059 298.644 19.4596C296.891 19.5855 295.216 19.6744 293.489 19.8091C293.754 19.7064 294.02 19.6037 294.285 19.501C292.465 19.6187 293.107 19.7579 291.249 19.9424C287.824 20.283 289.256 20.0171 288.732 19.8448C288.871 20.04 284.861 20.3319 284.443 20.3393C284.196 20.3429 285.25 19.9901 282.784 20.2776C282.926 20.348 283.068 20.4184 283.21 20.4888C282.073 20.4692 279.019 20.8634 278.505 20.8786C278.267 20.8855 276.941 20.3339 275.818 20.9513C275.67 20.8815 275.522 20.8119 275.375 20.7422C274.089 20.9483 272.788 21.1561 271.507 21.3629C271.289 21.2335 271.071 21.1042 270.852 20.9749C270.442 21.0096 270.032 21.0443 269.622 21.0791C269.906 21.1862 270.189 21.2935 270.472 21.4007C267.937 21.5556 264.845 22.0278 264.282 21.6337C263.744 21.762 263.212 21.8899 262.676 22.0182C262.311 21.9025 261.945 21.7869 261.579 21.6713C259.068 21.9259 259.034 22.0276 257.324 22.3337C257.381 22.2137 257.439 22.0938 257.496 21.9738C256.234 22.2453 253.94 22.5968 252.109 22.7789C251.24 22.865 249.73 22.8406 249.525 22.8731C249.319 22.9065 247.328 23.7062 247.061 23.1913C244.081 23.6962 242.734 23.5741 241.515 23.6901C240.722 23.7656 240.372 23.9266 239.477 24.0211C238.199 24.1562 236.905 24.2115 236.167 24.2877C235.745 24.3317 235.677 24.464 235.386 24.4946C234.009 24.6396 234.805 24.4379 233.353 24.5794C233.219 24.5931 232.17 24.8432 230.971 24.9338C230.301 24.9845 228.554 24.9727 228.401 24.9873C227.724 25.053 228.297 25.3457 225.945 25.1643C226.018 25.2233 226.092 25.2823 226.165 25.3413C223.315 25.7731 222.836 25.525 222.255 25.5589C222.181 25.5641 221.493 25.7418 221.074 25.7655C220.366 25.8051 220.068 25.6779 219.911 25.6857C219.358 25.7138 217.512 25.9557 216.288 25.9212C216.585 26.3348 212.354 26.8924 211.367 26.4864C210.625 26.6557 209.883 26.8252 209.142 26.9947C208.794 26.9454 208.447 26.8962 208.1 26.847C207.901 26.9481 207.703 27.0493 207.504 27.1504C206.396 27.0756 205.279 27.0021 204.167 26.9283C204.114 27.1144 204.062 27.3006 204.009 27.4868C203.701 27.4959 203.392 27.505 203.084 27.5142C202.831 27.3947 202.578 27.2751 202.325 27.1556C201.944 27.2198 201.564 27.284 201.184 27.3482C201.099 27.4606 201.014 27.5729 200.93 27.6853C198.882 28.0037 199.855 26.9153 196.005 28.1634C195.386 28.1416 194.767 28.1198 194.149 28.0981C193.498 28.5614 192.185 28.4479 191.15 28.5944C190.419 28.6978 190.479 28.8507 189.474 28.9531C188.47 29.0553 188.491 28.9014 188.413 28.9081C187.594 28.9795 186.991 29.1729 186.39 29.2057C186.299 29.2107 186.055 29.0544 185.292 29.1185C184.528 29.1827 184.087 29.4181 182.951 29.4947C182.368 29.5343 182.189 29.4002 181.667 29.4386C179.187 29.6198 176.786 30.6297 174.858 29.9105C174.465 30.0654 171.463 30.7724 170.173 30.8797C168.161 31.046 168.918 30.7904 168.117 30.8387C168.001 30.8456 167.403 30.9665 165.716 31.1271C165.413 31.156 165.493 31.2489 165.45 31.2547C163.467 31.4542 159.664 31.7632 157.502 31.9714C157.308 31.9899 156.319 32.3733 154.57 32.1747C152.08 32.7115 147.211 32.6154 143.938 33.3808C143.479 33.4378 142.912 33.3964 142.702 33.4218C140.927 33.6396 141.597 33.8747 137.565 33.8518C137.904 33.9722 136.986 34.21 135.679 34.3367C133.676 34.5312 135.065 34.0926 133.463 34.2865C133.471 34.3678 133.48 34.4491 133.489 34.5304C129.779 34.7039 129.137 35.1239 125.418 35.5251C124.09 35.6683 122.13 35.6977 121.818 35.7308C121.706 35.7435 120.265 36.0975 120.126 36.1142C119.341 36.2052 118.889 36.1628 118.215 36.2354C115.99 36.4751 113.401 37.0162 113.817 36.5025C113.209 36.6678 112.604 36.8329 112.001 36.9979C109.627 36.7581 108.012 37.6258 107.474 37.1994C107.066 37.3448 106.659 37.4901 106.254 37.6352C96.6539 38.6486 87.0333 39.6879 77.5075 40.7545C77.1951 40.7896 76.8842 40.8245 76.5747 40.8593C76.1582 41.0639 71.9298 41.5083 71.669 41.5157C70.6272 41.5295 71.6622 41.0647 69.5941 41.3898C69.3831 41.5645 69.173 41.7391 68.9638 41.9137C66.411 42.2691 67.6297 41.974 66.5778 41.9995C66.1439 42.0703 66.2975 42.1677 65.7122 42.2471C62.633 42.6641 56.0991 43.4772 52.6957 43.923C51.998 44.0139 52.0914 43.8935 51.876 43.9208C51.275 43.9986 50.1878 44.2748 48.9563 44.4347C41.6781 45.3728 31.223 46.7299 23.9891 47.7959C23.4982 47.8675 23.4021 47.7532 23.0674 47.8015C22.5946 47.8704 21.6178 48.1384 21.1102 48.2139C20.6496 48.2821 20.3474 48.235 19.8724 48.3058C17.6434 48.6365 14.6782 49.355 12.3258 49.5578C12.1056 49.5739 9.59492 49.5962 9.52402 49.5829C9.16194 49.4635 11.2379 48.6464 7.63874 49.1938C10.7366 48.2089 9.65365 47.9495 5.4759 48.7742C7.52901 48.1839 9.57706 47.6481 11.6801 47.1475C11.6721 47.0941 11.6642 47.0408 11.6562 46.9875C9.6762 47.1347 7.77951 47.4627 4.89252 48.1886C4.97023 48.1168 5.04844 48.0449 5.12721 47.973C7.61753 47.0623 10.6745 46.336 12.6003 45.603C9.6503 45.9436 6.72686 46.3639 3.794 46.8864C3.93045 46.8096 4.05958 46.7348 4.19277 46.6592C5.54161 46.189 8.54343 45.4053 9.68093 45.0662C14.0202 43.746 5.76943 45.6623 7.0695 45.1612C11.719 44.0544 16.435 43.1966 21.1765 42.4112C21.2792 42.0663 3.1129 45.2876 3.21259 45.0234C4.67196 44.6008 6.12697 44.1998 7.59619 43.823C6.90979 43.855 6.22713 43.8911 5.53446 43.9347C5.70474 43.8515 5.87752 43.7681 6.05304 43.6843C8.51847 42.9801 11.0008 42.3499 13.5193 41.7617C5.86607 43.3568 2.37784 44.3844 0.321229 43.8967C0.517146 43.8173 0.713376 43.7378 0.910463 43.6582C2.67216 43.7662 10.4345 41.6421 14.5974 40.8028C13.7298 40.7732 10.0535 41.6572 9.27223 41.7284C9.04847 41.7453 9.77408 41.4591 9.26228 41.5049C7.87089 41.6018 2.16891 42.8249 2.9423 42.4273C3.41312 42.0895 12.5768 39.8207 14.3653 39.5719C10.123 40.1251 5.73031 41.0316 1.50515 41.8919C4.01822 40.8088 6.28445 39.6914 11.1947 38.663C12.6526 38.089 2.16713 40.1591 1.93423 40.1989C3.67532 39.6082 5.44979 39.0394 7.24195 38.5067C5.71973 38.886 4.18841 39.2952 2.68648 39.7215C2.67168 39.683 2.65688 39.6445 2.64208 39.6059C6.51315 38.3964 10.1316 37.2559 14.6369 36.4449C14.4769 36.2511 11.7407 36.7898 10.4275 37.0633ZM438.389 11.6362C438.477 11.8147 436.85 11.8092 435.928 11.8205C436.067 11.851 436.206 11.8816 436.345 11.9122C434.377 11.9078 430.715 11.9036 430.587 12.2557C429.185 12.325 429.799 12.01 429.345 11.984C429.166 11.9734 427.336 12.1851 425.874 12.0004C425.526 12.0084 425.178 12.0165 424.83 12.0247C424.765 12.1406 424.7 12.2565 424.635 12.3724C424.146 12.2438 423.656 12.1154 423.164 11.9871C428.24 11.8511 433.317 11.7347 438.381 11.6363C438.384 11.6362 438.386 11.6362 438.389 11.6362ZM387.857 13.1594C386.015 13.1683 383.16 13.1872 383.753 13.4761C384.912 13.4104 386.097 13.3447 387.259 13.2811C387.458 13.2405 387.658 13.1999 387.857 13.1594ZM204.354 26.6158C202.784 26.4568 201.391 26.8593 199.01 27.0343C199.019 27.0989 199.028 27.1635 199.038 27.2281C199.994 26.9779 202.575 26.833 204.354 26.6158ZM484.282 10.169C484.622 10.193 484.963 10.217 485.304 10.241C483.918 10.5924 483.67 10.3454 482.103 10.3807C482.008 10.383 482.041 10.4632 482.008 10.4637C481.625 10.4695 481.269 10.3732 480.923 10.375C480.256 10.3787 479.712 10.4771 478.528 10.4753C477.613 10.4736 477.604 10.3198 477.282 10.3242C477.005 10.3284 474.297 10.7565 472.547 10.5783C469.224 10.2359 483.264 10.1331 484.282 10.169ZM494.137 10.4565C493.808 10.4579 493.479 10.4593 493.15 10.4607C494.139 10.2242 492.142 10.2601 490.679 10.2652C490.724 10.0383 493.821 10.1352 495.209 10.0677C494.852 10.1973 494.494 10.3269 494.137 10.4565ZM452.578 10.0959C453.865 10.0618 453.654 10.347 453.6 10.4317C453.191 10.4351 452.777 10.4386 452.372 10.4421C452.44 10.3267 452.509 10.2113 452.578 10.0959ZM462.243 9.93094C461.846 10.1251 459.061 10.2252 457.732 10.2503C457.675 10.2507 458.035 10.1427 457.103 10.1589C456.824 10.1636 454.066 10.5687 454.67 10.1283C457.189 10.0592 459.723 9.99354 462.239 9.93096C462.24 9.93095 462.241 9.93094 462.243 9.93094ZM465.065 10.0308C464.54 10.0936 464.014 10.1564 463.487 10.2194C463.215 10.1304 462.942 10.0415 462.669 9.95263C463.269 9.92675 463.868 9.90104 464.466 9.87548C464.666 9.92725 464.865 9.97904 465.065 10.0308ZM70.6527 39.2884C70.7871 39.3696 70.9218 39.4508 71.0566 39.532C71.5684 39.5304 73.7572 38.8476 73.0372 38.851C72.267 38.9936 71.4594 39.1409 70.6527 39.2884ZM60.9708 40.2562C60.4841 40.267 60.0016 40.2774 59.5235 40.2875C59.0006 40.5172 58.4835 40.7463 57.9722 40.975C60.2836 40.7984 62.9264 40.6038 62.4346 40.1774C62.964 40.1126 63.4986 40.0474 64.0384 39.9817C63.6107 40.235 63.6706 40.2936 65.1113 40.2464C65.3779 39.9342 66.9336 39.8882 68.5581 39.6319C67.3638 39.7588 66.1042 39.8944 64.8725 40.0275C64.8666 39.9789 64.8607 39.9302 64.8548 39.8816C67.6182 39.5649 64.1236 39.6741 62.4299 40.0781C62.2897 40.0295 62.1304 39.9833 61.9806 39.936C61.6417 40.0429 61.3052 40.1497 60.9708 40.2562ZM258.988 19.9706C258.643 19.9511 258.299 19.9317 257.954 19.9123C256.689 20.6668 259.325 19.8254 261.276 20.1666C260.613 19.8366 263.521 19.6015 263.684 19.5617C263.339 19.461 262.994 19.3604 262.649 19.2598C261.43 19.4961 260.21 19.7331 258.988 19.9706ZM249.307 20.3773C250.514 20.5911 244.725 21.1261 242.776 21.2316C242.302 21.2569 241.444 21.1579 241.104 21.2108C240.903 21.2941 240.702 21.3775 240.501 21.4609C240.233 21.2595 236.466 21.8546 234.982 22.1118C234.834 22.0433 234.686 21.9748 234.537 21.9062C233.995 21.9884 233.453 22.0706 232.911 22.1529C232.973 22.0655 233.034 21.9781 233.095 21.8907C232.691 22.0261 232.288 22.1615 231.884 22.297C230.275 22.5544 231.233 22.0203 230.03 22.2703C228.693 22.5481 230.931 22.6073 230.906 22.7826C231.999 22.6372 234.485 22.3096 235.597 22.2033C236.235 22.1425 235.54 22.5151 238.261 21.9119C238.871 21.9394 239.482 21.9669 240.095 21.9944C241.193 21.7632 242.29 21.5324 243.387 21.302C243.604 21.3971 243.821 21.4923 244.038 21.5875C244.158 21.5945 246.696 21.1069 246.552 21.0338C247.604 21.1589 249.75 21.0067 251.995 20.8195C252.206 20.7385 252.417 20.6576 252.627 20.5767C250.467 20.9021 251.93 20.5723 251.273 20.5111C250.893 20.4759 249.736 20.4432 249.307 20.3773ZM85.7013 37.2765C82.1038 37.9713 84.3782 37.4769 80.3903 37.9393C80.6828 38.0538 80.9764 38.1682 81.2709 38.2826C83.2399 37.7824 86.3424 37.6065 85.7051 37.2761C85.7038 37.2762 85.7026 37.2764 85.7013 37.2765ZM47.3563 42.425C49.3976 42.0693 48.4048 41.9661 50.9668 41.5623C50.968 41.5621 50.9692 41.562 50.9705 41.5618C49.6624 41.7129 48.2191 41.8831 46.892 42.0402C47.0463 42.1685 47.2011 42.2968 47.3563 42.425ZM168.994 28.6432C170.998 28.505 170.593 28.4305 172.435 28.4752C175.12 27.9255 172.827 28.1957 172.802 27.9445C172.189 28.0806 171.578 28.2167 170.967 28.3528C169.445 28.2691 170.854 28.0074 170.852 27.9848C170.85 27.9849 170.849 27.985 170.848 27.9852C170.84 27.9098 170.887 27.889 170.308 27.9014C169.869 28.1487 169.431 28.3959 168.994 28.6432ZM177.517 27.4722C176.849 27.7075 176.562 27.9526 178.374 27.8794C178.376 27.8793 178.377 27.8792 178.378 27.879C178.485 27.4917 180.246 27.62 181.034 27.5163C181.238 27.4551 181.441 27.3939 181.645 27.3327C180.266 27.3792 178.89 27.4256 177.517 27.4722ZM207.638 24.178C207.685 24.5893 206.177 24.7731 208.34 24.9494C208.753 24.9025 209.165 24.8557 209.577 24.8089C209.84 24.6926 210.103 24.5763 210.365 24.46C215.683 24.7073 217.123 23.2877 208.308 24.6066C208.306 24.607 208.305 24.6074 208.304 24.6078C208.082 24.4645 207.86 24.3212 207.638 24.178ZM198.409 25.1026C198.363 25.3254 198.318 25.5481 198.272 25.7709C197.062 25.3617 195.61 26.0054 193.305 25.8591C193.106 25.945 192.907 26.0308 192.708 26.1166C191.856 26.0527 183.503 26.8346 185.345 26.9889C186.147 27.0562 187.846 26.6893 187.995 26.6792C188.498 26.646 189.172 26.7673 190.019 26.6732C190.505 26.6189 191.51 26.2997 192.506 26.2026C194.731 25.9855 198.868 26.1746 201.738 25.3374C201.956 25.3822 202.173 25.4271 202.39 25.4719C204.563 25.2224 203.816 25.0857 205.867 25.1374C207.165 23.9746 197.733 25.9727 199.639 24.9481C199.638 24.9482 199.636 24.9484 199.635 24.9485C199.226 24.9998 198.817 25.0512 198.409 25.1026ZM138.559 31.4743C138.406 31.3039 135.929 31.8533 136.472 31.3493C135.675 31.5892 134.865 31.8305 134.051 32.0724C134.062 32.1128 134.072 32.1532 134.083 32.1936C134.905 32.0737 135.722 31.9545 136.527 31.8367C136.537 31.9015 136.547 31.9663 136.557 32.0311C137.732 31.668 142.85 31.2335 142.725 31.4803C142.988 31.3542 143.245 31.2288 143.505 31.103C145.946 31.1156 148.019 30.6142 150.709 30.5968C150.904 30.4949 151.1 30.3931 151.295 30.2912C151.435 30.3426 151.575 30.3939 151.714 30.4453C152.675 30.3541 153.64 30.2627 154.607 30.1712C157.73 29.5838 151.574 29.8756 150.852 29.9901C150.754 30.0057 150.791 30.1724 150.176 30.2629C149.057 30.4255 142.972 30.8908 141.062 31.2047C141.034 31.0946 141.006 30.9844 140.978 30.8742C140.169 31.0744 139.363 31.2744 138.559 31.4743ZM219.379 23.5094C219.528 23.6104 219.677 23.7114 219.826 23.8125C222.201 23.4747 223.713 23.4345 223.066 23.1145C223.065 23.1146 223.064 23.1147 223.063 23.1148C221.835 23.246 220.607 23.3775 219.379 23.5094ZM396.832 10.9977C396.762 10.7724 395.602 10.7283 394.146 10.9455C394.22 11.0089 394.293 11.0723 394.366 11.1357C395.119 10.9142 396.099 11.2155 398.477 11.0877C398.473 10.9733 398.469 10.8589 398.465 10.7444C397.922 10.8286 397.378 10.913 396.832 10.9977ZM217.317 23.6536C216.577 23.5876 214.577 24.1881 215.92 24.0815C216.947 23.9998 217.713 23.6891 217.317 23.6536ZM39.2083 43.2926C39.7332 43.2445 40.2593 43.1968 40.7971 43.1478C41.0621 43.0135 41.3295 42.8789 41.5992 42.7442C41.5979 42.7443 41.5966 42.7445 41.5954 42.7447C40.7804 42.929 39.9884 43.1111 39.2083 43.2926ZM162.163 29.3566C163.986 29.1561 165.836 28.9535 167.644 28.7558C167.656 28.6908 167.668 28.6258 167.68 28.5607C165.884 28.9759 165.115 28.8031 164.685 28.8315C164.687 28.8313 164.689 28.8311 164.691 28.8309C163.309 28.921 161.998 29.0176 160.697 29.0745C161.185 29.1686 161.674 29.2626 162.163 29.3566ZM155.862 29.6002C156.211 30.0155 156.642 30.0232 159.401 29.4228C159.285 29.3792 159.169 29.3356 159.053 29.292C157.618 29.4723 156.758 29.6651 156.995 29.4054C156.617 29.4704 156.239 29.5353 155.862 29.6002ZM184.492 26.8519C184.139 26.7431 181.491 27.1501 181.64 27.2078C181.702 27.2302 185.173 27.0657 184.492 26.8519ZM417.179 10.2823C416.564 10.2649 415.948 10.2479 415.331 10.2311C416.152 10.1611 416.961 10.0919 417.785 10.0228C417.58 10.1094 417.379 10.1959 417.179 10.2823ZM423.953 9.48629C424.396 9.53418 422.972 9.96756 425.61 10.0162C423.69 10.0645 421.774 10.1155 419.861 10.1693C420.759 10.0828 421.653 9.99707 422.544 9.912C422.386 9.79957 422.228 9.68716 422.069 9.57478C422.689 9.54517 423.325 9.5155 423.953 9.48629ZM426.02 9.73855C424.98 9.45203 430.418 9.32138 430.925 9.35159C431.038 9.35844 431.578 9.58129 431.775 9.62779C430.957 9.64255 430.137 9.65784 429.313 9.67368C429.59 9.74166 429.867 9.80971 430.143 9.87781C429.185 9.92059 428.207 9.96442 427.257 10.0084C427.664 9.92681 428.072 9.8453 428.485 9.76384C427.651 9.75515 426.844 9.74642 426.02 9.73855ZM404.217 10.3814C404.904 10.3673 405.589 10.3537 406.271 10.3405C406.131 10.2302 405.991 10.1199 405.851 10.0097C405.442 10.0223 405.033 10.0351 404.622 10.048C404.487 10.1592 404.352 10.2703 404.217 10.3814ZM418.208 9.84062C417.21 10.4163 414.478 9.28003 417.659 9.64644C417.984 9.68378 418.302 9.78505 418.208 9.84062ZM432.956 9.38162C435.099 8.9436 434.624 9.83876 432.6 9.61337C432.498 9.60129 432.797 9.41402 432.956 9.38162ZM448.992 9.15268C449.166 9.15402 449.474 9.43784 451.123 9.1493C451.396 9.17955 451.669 9.20984 451.941 9.24018C451.31 9.37769 445.837 9.51346 446.594 9.22149C447.427 9.20789 448.123 9.15254 448.992 9.15268ZM443.687 8.14865C442.859 8.16675 442.049 8.18507 441.229 8.20396C441.5 8.29036 441.771 8.37682 442.042 8.46332C441.64 8.49302 441.238 8.52284 440.835 8.55277C440.144 8.40684 439.45 8.26127 438.756 8.11604C440.55 8.0654 442.31 8.01738 444.106 7.97094C443.966 8.03016 443.827 8.0894 443.687 8.14865ZM421.873 8.30316C423.443 8.38073 425.4 8.21785 427.944 8.1873C427.946 8.18756 427.947 8.18782 427.948 8.18807C428.077 8.18688 428.308 8.30602 428.721 8.30302C429.08 8.29715 435.993 8.04219 435.46 8.26261C432.776 8.49364 431.778 8.22687 431.144 8.70412C431.012 8.60822 430.88 8.51233 430.748 8.41645C428.166 8.29369 427.433 8.64927 425.997 8.80318C426.001 8.72903 426.005 8.65487 426.009 8.58072C425.045 8.59308 424.078 8.60621 423.106 8.62014C423.244 8.66583 423.382 8.71153 423.52 8.75724C423.177 8.76469 422.829 8.77236 422.491 8.77988C421.66 8.57889 420.606 8.55194 421.873 8.30316ZM447.409 8.22825C448.165 7.65611 455.561 7.97238 458.936 7.83618C457.155 8.1855 454.424 7.97254 452.48 7.98618C448.752 8.01335 451.331 8.19714 450.7 8.2936C450.389 8.34117 448.257 8.00192 447.409 8.22825ZM416.113 8.53994C417.956 8.5385 419.026 8.38334 420.634 8.55203C420.5 8.59616 420.367 8.6403 420.233 8.68446C419.679 8.65846 415.175 8.65241 416.113 8.53994ZM463.886 7.95565C460.278 7.77219 462.064 8.27174 460.19 7.90111C461.421 7.86959 462.649 7.83881 463.885 7.80868C463.885 7.85767 463.885 7.90666 463.886 7.95565ZM213.014 21.9379C211.5 22.0685 209.803 22.1273 208.92 22.4245C209.949 22.3591 210.979 22.2939 212.01 22.2289C212.345 22.1319 212.679 22.0349 213.014 21.9379ZM255.94 15.9385C255.587 15.9184 254.239 16.1871 254.095 16.1998C253.828 16.2233 253.894 16.1433 253.889 16.1244C252.142 16.2915 253.775 16.3777 252.486 16.5413C252.266 16.5687 249.214 16.725 247.975 16.8449C246.07 17.0288 244.174 17.1839 243.462 17.2519C242.263 17.366 240.046 17.7383 238.075 17.9262C237.263 18.0034 236.967 17.8922 236.15 17.97C230.902 18.4692 220.588 19.6171 215.926 19.9716C214.774 20.0584 213.661 19.983 213.053 20.0554C212.579 20.1664 212.105 20.2775 211.632 20.3886C210.1 19.9393 209.656 20.5107 208.073 20.7175C207.067 20.8487 206.579 20.7192 206.443 20.7326C205.547 20.8221 205.107 20.9482 204.401 21.0299C203.609 21.1214 202.461 21.1525 202.179 21.1941C202.007 21.2205 202.583 21.3987 199.51 21.6916C196.383 21.9898 193.267 22.2689 190.092 22.5698C191.22 23.1665 192.087 22.5973 193.386 22.4445C193.734 22.4036 193.524 22.5364 193.827 22.5019C194.684 22.4047 196.319 22.135 197.034 22.0923C197.806 22.0462 197.57 22.3295 198.531 22.1401C198.58 22.1305 198.414 22.039 198.641 21.999C200.92 21.6003 201.69 21.7127 204.603 21.438C206.53 21.2539 218.224 20.0377 218.632 20.072C220.764 20.2463 208.426 21.4149 206.987 21.5261C206.482 21.564 206.999 21.3958 206.537 21.4172C206.344 21.4266 204.607 21.8194 202.876 22.0051C200.782 22.2293 196.565 22.4839 194.563 22.685C177.427 24.4044 160.468 25.9834 143.351 27.7728C142.987 27.8109 142.529 27.9946 141.326 28.1209C120.156 30.344 98.251 32.6343 76.8548 35.1833C75.7586 35.314 74.6811 35.4434 73.6221 35.5716C68.724 36.1643 63.9235 36.8698 58.945 37.3844C58.3436 37.5581 57.7855 37.7267 57.1623 37.9037C58.6954 37.6331 61.6002 37.5005 61.8857 37.4692C61.9904 37.4574 62.5426 37.2777 63.4937 37.1678C64.8306 37.013 65.449 37.0355 65.5597 37.0221C65.9077 36.9803 65.6671 36.9062 66.0005 36.8664C68.4229 36.5784 70.3368 36.3206 72.5636 36.0556C74.4129 35.8359 75.6352 35.798 76.9056 35.6173C77.3253 35.5571 77.7516 35.4796 78.2145 35.3712C78.4301 35.4283 78.6463 35.4854 78.863 35.5424C80.1923 35.0293 88.4682 34.1145 91.7375 33.765C92.7926 33.6514 92.6253 33.8149 92.9812 33.7746C93.1937 33.7506 93.1484 33.5659 95.843 33.2995C97.2162 33.1639 97.5977 33.259 98.2927 33.1766C98.6713 33.1316 98.5942 33.0035 99.1404 32.9424C102.288 32.5904 104.818 32.3538 107.902 32.039C108.755 31.9519 108.778 32.0634 108.969 32.0409C109.674 31.9582 110.881 31.6323 112.704 31.4333C115.657 31.1104 121.613 30.4655 124.022 30.3006C124.38 30.276 124.691 30.3794 124.954 30.3491C125.352 30.3028 125.494 30.1449 125.564 30.1366C126.901 29.9907 126.11 30.2082 127.004 30.0801C127.489 30.0108 127.973 29.7962 129.075 29.66C130.537 29.4797 130.27 29.7014 130.882 29.6168C130.946 29.6069 130.951 29.472 131.556 29.4032C133.862 29.1416 137.173 28.7602 139.344 28.5321C139.969 28.4663 140.443 28.5068 141.319 28.4164C143.069 28.2336 153.03 27.1396 153.843 27.1095C153.93 27.106 153.064 27.3934 154.476 27.2417C154.878 27.1178 155.281 26.9938 155.684 26.8698C156.385 26.9295 157.088 26.9892 157.793 27.0488C157.719 26.6001 161.732 26.1185 161.743 26.5841C162.186 26.5577 162.63 26.5312 163.075 26.5048C163.961 26.0923 164.6 26.146 166.351 25.7789C166.637 25.8486 166.922 25.9184 167.208 25.9882C167.271 25.916 167.334 25.8438 167.397 25.7715C168.377 26.0289 169.897 25.5171 170.086 25.496C170.812 25.4147 171.368 25.4493 171.71 25.412C172.994 25.273 175.721 24.8742 177.214 24.7829C177.284 24.7789 177.231 24.9367 177.655 24.9131C178.422 24.8705 178.474 24.642 179.519 24.8C179.719 24.7143 179.918 24.6286 180.118 24.5429C180.34 24.5548 180.562 24.5668 180.784 24.5787C182.078 24.4325 183.348 24.289 184.634 24.1442C183.491 24.5156 184.849 24.5252 186.102 24.1982C186.527 24.0874 186.129 23.9695 186.27 23.9318C186.465 23.8797 192.252 23.3908 192.64 23.455C192.908 23.3792 193.177 23.3035 193.445 23.2277C193.593 23.3123 193.741 23.3969 193.888 23.4814C194.036 23.4324 194.183 23.3834 194.331 23.3344C195.853 23.3599 199.718 22.5847 200.425 22.5482C200.804 22.5284 200.504 22.9792 202.312 22.7617C202.363 22.6408 202.415 22.5199 202.467 22.3991C202.88 22.3426 203.294 22.2862 203.707 22.2298C204.487 22.165 205.641 22.2551 205.691 22.3877C205.927 22.2826 206.162 22.1776 206.397 22.0727C207.074 22.2761 210.545 21.8493 211.932 21.5479C212.35 21.5892 212.767 21.6305 213.185 21.6719C213.727 21.5221 214.27 21.3723 214.81 21.2228C216.082 21.0729 214.751 21.3624 215.024 21.3502C215.6 21.3237 218.505 20.7737 218.344 21.1333C218.744 21.0965 219.144 21.0598 219.544 21.0232C219.74 20.9063 219.936 20.7895 220.133 20.6727C220.85 20.9447 222.028 20.7144 224.474 20.6104C224.671 20.514 224.868 20.4176 225.065 20.3212C225.829 20.3612 226.592 20.4014 227.355 20.4417C227.498 20.2992 227.641 20.1567 227.783 20.0142C228.109 19.9655 228.435 19.9167 228.761 19.8681C229.453 20.0937 230.618 19.6734 231.238 19.7359C232.142 19.8271 231.473 20.0961 229.83 20.2877C229.971 20.4851 234.874 19.9382 236.003 19.8204C235.924 19.7864 235.846 19.7524 235.767 19.7184C234.613 19.8562 233.459 19.9945 232.304 20.1331C231.285 19.6961 234.443 19.5486 235.878 19.3496C236.009 19.3311 236.739 19.0636 238.193 18.9503C238.754 18.9066 240.981 18.9988 241.401 18.9774C244.799 18.8055 242.273 18.6128 245.616 18.681C244.903 18.4632 246.817 18.5257 248.801 18.2949C249.138 18.2554 251.979 17.7755 252.171 17.7528C253.371 17.6104 252.083 17.9728 253.818 17.7553C254.021 17.6719 254.224 17.5886 254.428 17.5052C254.833 17.4697 255.236 17.4343 255.643 17.3987C258.161 17.7617 258.695 17.286 259.566 17.1551C259.918 17.1024 259.476 17.2929 260.389 17.1815C260.733 17.1397 261.105 16.9809 262.031 16.892C264.923 16.615 265.975 17.067 268.594 16.2801C269.011 16.3264 269.427 16.3729 269.843 16.4194C270.111 16.2986 270.379 16.1779 270.647 16.0573C272.778 16.1619 271.999 15.9363 272.764 15.8754C274.794 15.713 278.922 15.4263 279.298 15.6301C280.998 14.9508 283.143 15.3832 283.826 15.3066C284.229 15.2084 284.632 15.1102 285.034 15.0121C285.518 15.0385 286.002 15.065 286.485 15.0917C286.208 14.5849 288.732 14.9016 288.977 14.8901C289.257 14.8752 293.075 14.4141 294.487 14.3064C295.892 14.1985 298.412 14.1455 298.624 14.1295C298.876 14.1099 301.286 13.7794 303.162 13.6381C304.849 13.5067 314.646 12.9851 314.024 12.798C313.377 12.7798 312.455 12.7906 311.657 12.8187C309.229 12.895 294.765 13.8819 291.125 14.1424C283.737 14.6559 276.055 15.304 268.644 15.8822C268.209 15.9163 268.131 15.7857 267.757 15.8145C267.19 15.8588 265.76 16.1182 265.198 16.1633C263.094 16.3316 260.573 16.5273 259.45 16.6215C256.95 16.8317 255.22 16.9008 253.335 17.0532C252.744 17.1012 249.767 17.534 247.705 17.6461C247.329 17.6411 246.954 17.6358 246.58 17.6307C247.63 17.4917 250.399 17.129 251.683 17.0025C253.595 16.8143 254.601 16.8375 255.306 16.7737C255.899 16.72 258.92 16.3295 260.296 16.2076C260.723 16.1696 260.823 16.3048 261.188 16.2727C263.164 16.0982 265.792 15.869 267.501 15.5824C266.804 15.6875 271.196 15.4028 271.423 15.3838C271.815 15.3507 272.237 15.1805 273.045 15.1126C274.599 14.9824 274.426 15.2782 276.339 14.8372C276.825 14.8788 277.31 14.9205 277.795 14.9623C277.781 14.5875 283.906 14.5934 285.581 14.0032C285.633 13.9459 277.723 14.4482 277.087 14.4955C273.18 14.7743 267.432 15.3526 263.627 15.6147C262.492 15.6921 258.897 15.7756 258.625 15.8037C258.19 15.848 258.595 15.9432 258.407 15.9642C254.558 16.3969 256.459 15.9691 255.94 15.9385ZM425.98 7.96854C424.81 7.97715 423.628 7.98704 422.453 7.99785C422.536 7.91395 422.618 7.83008 422.701 7.74618C423.243 7.76608 423.784 7.78623 424.324 7.80663C424.737 7.74881 425.149 7.69114 425.561 7.63361C425.701 7.74524 425.84 7.85688 425.98 7.96854ZM428.861 7.56793C429.881 7.50724 429.933 7.67948 430.169 7.68355C430.87 7.69626 431.474 7.61547 432.151 7.60605C431.379 8.03035 429.709 7.8725 428.861 7.56793ZM407.848 7.93252C408.08 7.94529 409.631 8.34158 411.349 7.88182C412.643 7.97641 413.973 8.07132 415.273 8.16837C413.049 8.02569 410 8.31954 408.915 8.34384C408.502 8.35292 408.419 8.21954 408.089 8.22712C406.168 8.27313 404.371 8.63799 404.155 8.19487C405.947 8.26868 407.549 7.91725 407.848 7.93252ZM419.296 7.78523C419.603 7.87193 419.909 7.95872 420.214 8.04558C419.121 8.07117 418.008 8.09816 416.92 8.12549C417.212 8.023 417.503 7.92059 417.801 7.8181C418.3 7.80692 418.799 7.79597 419.296 7.78523ZM335.024 11.2761C335.702 11.2334 336.377 11.1911 337.05 11.1492C337.009 11.0832 336.239 11.1328 335.951 11.105C335.952 11.105 335.953 11.1049 335.954 11.1048C335.634 11.0731 335.764 10.9762 335.184 10.9747C335.131 11.0752 335.078 11.1756 335.024 11.2761ZM56.2976 37.7154C55.1949 37.8399 44.7549 39.1842 45.725 39.3159C46.1341 39.3868 49.7551 38.806 50.7467 38.6822C52.1699 38.5012 55.9912 38.2921 56.2976 37.7154ZM37.9099 40.0731C37.8171 40.3329 44.2165 39.5058 44.882 39.3787C44.7403 39.3617 44.5194 39.3112 44.3361 39.3174C43.4478 39.3469 39.328 39.9434 37.9099 40.0731ZM297.172 13.274C297.711 13.3583 298.248 13.4428 298.785 13.5274C298.633 13.3749 298.482 13.2224 298.331 13.0699C297.945 13.1378 297.559 13.2058 297.172 13.274ZM246.165 17.7441C237.405 18.5188 228.651 19.3138 219.893 20.127C220.657 19.987 221.421 19.8471 222.185 19.7074C229.732 19.0264 237.782 18.3588 245.063 17.6015C245.431 17.649 245.798 17.6965 246.165 17.7441ZM405.352 7.27076C403.114 7.33806 401.208 7.52063 398.774 7.41302C401.085 7.14811 402.268 7.39621 404.524 7.05133C404.525 7.05129 404.526 7.05125 404.528 7.05122C404.803 7.12433 405.078 7.19751 405.352 7.27076ZM355.124 9.42405C355.804 9.27127 356.482 9.11895 357.157 8.96707C356.337 9.01224 355.514 9.05806 354.687 9.10454C354.833 9.21102 354.979 9.31752 355.124 9.42405ZM169.743 24.4005C167.433 24.8843 161.371 25.0469 159.508 25.5407C159.387 25.5729 160.527 25.5835 158.73 26.0147C160.1 25.8235 161.072 25.6727 161.155 25.47C161.572 25.4932 161.99 25.5164 162.408 25.5396C163.085 25.4206 163.764 25.3016 164.444 25.1826C164.389 25.3815 164.441 25.3658 165.482 25.1277C165.962 25.1278 166.441 25.1281 166.922 25.1283C167.115 25.0269 167.309 24.9254 167.502 24.8239C167.926 24.8955 168.349 24.967 168.774 25.0386C170.372 24.7528 169.369 24.6324 169.743 24.4005ZM177.957 23.6224C177.575 23.6161 166.709 24.8494 171.695 24.7325C172.985 24.5901 174.265 24.4492 175.543 24.3087C174.418 23.783 177.968 23.9983 178.259 23.9829C179.639 23.9074 181.395 23.5808 182.383 23.4906C183.239 23.4126 183.759 23.4756 184.362 23.4129C186.412 23.1999 189.676 22.8746 190.092 22.5698C188.494 22.7212 186.86 22.8793 185.201 23.05C183.442 23.231 181.888 23.1354 178.606 23.8049C177.785 23.8501 178.056 23.6233 177.957 23.6224ZM359.203 8.88181C359.132 9.14914 363.317 8.86311 363.33 8.75895C363.336 8.69732 361.981 8.76995 361.784 8.75726C361.783 8.75732 361.782 8.75739 361.781 8.75746C361.699 8.75164 362.105 8.62892 361.464 8.63478C360.713 8.71656 359.952 8.79932 359.203 8.88181ZM72.4035 35.1634C71.8021 35.0784 59.0593 36.6731 58.6764 36.8003C58.5779 36.8323 58.7267 36.8794 58.6914 36.9216C61.6473 36.3441 65.9728 36.0681 68.7407 35.7537C69.5291 35.6638 69.2823 35.5877 69.3264 35.5804C69.3283 35.5801 69.3302 35.5799 69.332 35.5797C69.7696 35.5269 71.8872 35.5331 72.4035 35.1634ZM155.415 26.0823C155.966 26.0671 156.517 26.0518 157.07 26.0366C157.2 25.941 157.331 25.8453 157.462 25.7497C157.461 25.7499 157.459 25.75 157.458 25.7501C156.776 25.8609 156.095 25.9716 155.415 26.0823ZM136.524 27.7831C136.662 27.8264 136.8 27.8697 136.938 27.913C138.303 27.7768 139.676 27.6402 141.056 27.5032C140.921 27.5501 140.785 27.597 140.65 27.6439C142.754 27.51 143.568 27.2216 144.674 27.1352C144.673 27.1353 144.672 27.1354 144.671 27.1356C144.789 27.1265 144.945 27.2308 145.387 27.1888C146.396 27.0926 149.318 26.8333 149.662 26.6765C150.377 26.343 144.521 27.0755 143.449 27.1766C142.958 27.2226 142.365 27.1792 142.058 27.209C141.727 27.2415 141.29 27.4297 140.486 27.5098C140.249 27.5332 137.633 27.6411 136.524 27.7831ZM112.352 30.5556C112.789 30.6382 113.682 30.4145 113.994 30.4017C114.071 30.3984 113.489 30.5712 114.213 30.5249C114.409 30.429 114.605 30.3331 114.802 30.2371C113.998 30.3417 113.178 30.4482 112.352 30.5556ZM366.195 8.38966C366.058 8.36844 363.853 8.49212 363.743 8.51584C362.424 8.82092 367.022 8.5581 366.195 8.38966ZM422.633 6.04859C421.615 5.71966 433.813 5.81602 435.011 5.78812C434.958 6.0048 432.034 5.83657 433.569 6.10755C432.117 5.96758 428.098 6.1289 427.155 6.10133C426.584 6.0841 426.436 5.90036 426.349 5.89618C426.013 5.88138 423.005 6.16107 422.633 6.04859ZM445.106 5.79545C443.945 5.76792 442.774 5.74137 441.621 5.71549C442.979 5.67316 444.365 5.63174 445.731 5.59173C445.523 5.65961 445.315 5.72751 445.106 5.79545ZM446.564 5.68069C446.518 5.47092 450.472 5.58973 451.502 5.53302C450.345 5.89993 448.375 5.58278 446.564 5.68069ZM381.014 7.14773C379.191 7.08886 378.434 7.76219 380.635 7.38664C380.702 7.3745 381.09 7.15176 381.014 7.14773ZM169.094 23.5625C168.78 23.59 164.955 23.7698 164.73 23.8961C164.062 24.2929 166.564 23.9066 167.413 23.9449C168.79 24.0067 166.808 24.3729 170.113 23.9173C169.984 23.9962 169.855 24.0751 169.725 24.154C171.672 23.9793 170.991 23.592 171.334 23.4987C171.439 23.4703 172.661 23.3855 172.879 23.3345C175.589 22.6944 169.375 23.5366 169.094 23.5625ZM336.127 9.53452C332.507 9.57589 334.036 9.75866 330.371 9.98381C330.245 10.1352 335.666 9.68903 336.127 9.53452ZM204.162 20.3628C200.44 20.7777 197.372 20.8859 193.917 21.4774C194.185 21.8406 205.133 20.3686 204.162 20.3628ZM29.5074 39.4868C43.9916 38.042 60.589 35.7835 76.0089 33.9578C76.2736 33.9266 76.5027 33.9033 76.7028 33.886C77.7419 33.7978 77.9493 33.8826 78.4547 33.8093C78.8478 33.7525 78.7639 33.637 79.2908 33.5751C98.4327 31.3301 116.668 29.1727 135.007 27.3027C136.133 27.1877 141.797 26.8598 142.952 26.3343C143.834 25.9344 139.808 26.5963 139.136 26.6647C138.63 26.716 138.594 26.5754 138.257 26.6104C137.901 26.6475 138.206 26.714 137.792 26.7591C136.043 26.9506 134.131 27.1145 132.528 27.2933C117 29.0256 101.784 30.6684 86.3211 32.4251C84.4344 32.64 84.8153 32.4807 84.719 32.4912C84.7178 32.4916 84.7166 32.4921 84.7153 32.4925C82.1629 32.7831 79.3344 33.1265 76.6533 33.4635C68.7697 34.4517 60.449 35.5773 52.6081 36.499C45.071 37.3772 37.6421 38.2807 30.1426 39.3062C29.9369 39.3654 29.7288 39.425 29.5074 39.4868ZM177.081 23.1672C176.1 22.8293 175.942 23.2843 172.565 23.446C172.298 23.5473 172.031 23.6486 171.764 23.7499C173.555 23.5531 175.309 23.3608 177.087 23.1666C177.085 23.1668 177.083 23.167 177.081 23.1672ZM154.878 25.2632C154.251 24.7378 146.771 25.9287 143.397 26.1709C142.807 26.5283 147.694 25.8847 148.872 25.7938C149.474 25.7466 152.565 25.7301 154.917 25.3194C154.904 25.3006 154.891 25.2819 154.878 25.2632ZM409.84 5.51233C409.292 5.54517 408.743 5.57828 408.192 5.61167C409.575 5.63573 410.941 5.66177 412.314 5.68905C410.136 5.70692 407.925 5.72948 405.737 5.75512C406.141 5.62099 406.535 5.48725 406.947 5.35312C407.916 5.40533 408.88 5.45841 409.84 5.51233ZM402.727 5.79223C406.568 5.6237 402.573 6.07621 401.598 5.96424C401.018 5.89658 402.335 5.80976 402.727 5.79223ZM392.737 5.93266C394.508 5.65135 398.138 5.50826 396.863 5.98024C394.891 5.85079 393.7 6.05975 390.868 6.05343C391.277 5.95585 391.685 5.85844 392.093 5.76118C392.095 5.76111 392.097 5.76104 392.098 5.76096C392.312 5.81815 392.524 5.87538 392.737 5.93266ZM404.474 5.47819C406.999 5.64268 399.703 5.79316 401.992 5.55803C402.101 5.5467 404.377 5.47154 404.474 5.47819ZM45.3982 36.832C45.1203 37.0089 46.9977 36.7599 47.6514 36.6848C50.4518 36.3622 53.9379 35.8584 56.8683 35.5129C56.6405 35.4951 56.4137 35.4772 56.1879 35.4592C52.615 35.9027 48.9536 36.3672 45.3982 36.832ZM65.8772 34.4094C67.8426 34.1722 69.8176 33.9359 71.8184 33.6986C71.998 33.6772 72.8359 33.4576 72.1993 33.5037C70.1014 33.8022 67.9605 34.108 65.8772 34.4094ZM189.531 21.0931C188.005 21.1646 192.337 20.3374 192.183 20.7833C191.298 20.8865 190.414 20.9898 189.531 21.0931ZM203.668 19.5467C202.717 19.6792 201.766 19.8118 200.816 19.9445C200.81 19.8955 200.804 19.8466 200.798 19.7977C201.754 19.7139 202.711 19.6302 203.668 19.5467ZM37.5933 37.7845C38.661 37.8064 41.0227 37.4582 42.5231 37.2616C41.4923 37.2528 39.0347 37.6575 37.5933 37.7845ZM166.719 23.1977C166.867 23.2976 160.789 23.8875 162.87 23.4722C164.154 23.3803 165.449 23.2875 166.719 23.1977ZM154.407 24.2861C155.704 24.127 156.72 24.0623 156.47 24.2695C155.778 24.333 155.086 24.3964 154.397 24.4599C154.4 24.4019 154.404 24.344 154.407 24.2861ZM385.907 5.85774C383.682 5.96548 381.532 6.07373 379.317 6.18836C379.396 6.1355 379.476 6.08264 379.556 6.02979C381.689 5.91935 383.764 5.81471 385.908 5.71059C385.908 5.75964 385.907 5.80869 385.907 5.85774ZM36.2976 37.5177C34.8497 37.7523 33.3069 38.0039 31.8266 38.2513C33.3174 38.0683 34.8708 37.8811 36.3284 37.7109C36.3193 37.6461 36.3103 37.5812 36.3012 37.5163C36.3 37.5168 36.2988 37.5172 36.2976 37.5177ZM415.99 4.21638C409.275 4.16297 417.807 3.69318 419.614 3.99217C419.616 3.99184 419.618 3.99151 419.62 3.99118C419.776 4.01734 419.451 4.16941 419.711 4.22151C419.025 4.17247 418.337 4.12384 417.647 4.07562C417.021 4.17227 416.41 4.26884 415.789 4.36595C415.584 4.33931 415.378 4.3127 415.172 4.28613C415.445 4.26282 415.718 4.23957 415.99 4.21638ZM443.092 3.57827C449.199 3.53304 442.946 3.96426 439.943 3.72225C439.966 3.65563 442.531 3.58238 443.092 3.57827ZM427.132 3.91306C426.178 3.96481 425.221 4.0173 424.259 4.07058C424.135 4.03191 424.011 3.99325 423.888 3.95461C424.626 3.8977 425.362 3.84124 426.096 3.78523C426.442 3.82774 426.788 3.87035 427.132 3.91306ZM395.545 4.15838C394.014 4.16907 392.046 4.6988 397.009 4.3993C397.005 4.35015 397 4.30099 396.996 4.25184C396.798 4.2667 396.216 4.33369 396.184 4.33118C396.092 4.32216 396.195 4.15376 395.545 4.15838ZM454.364 2.16595C454.537 2.14593 454.631 1.62495 456.436 2.14942C456.98 2.11275 457.522 2.07625 458.07 2.03986C458.213 2.15341 458.355 2.26698 458.497 2.38056C456.379 2.30578 456.166 2.53964 456.011 2.54558C455.311 2.57245 455.828 2.44943 455.376 2.4512C454.208 2.45572 451.545 2.55877 452.748 2.20832C453.183 2.08273 454.191 2.18603 454.364 2.16595ZM450.234 1.9063C450.491 1.94723 449.667 2.10716 449.861 2.14828C450.032 2.18378 452.573 2.31589 451.888 2.57898C451.471 2.57185 451.054 2.56482 450.636 2.55791C450.494 2.48888 450.352 2.41987 450.21 2.35087C449.806 2.41966 449.401 2.48855 448.997 2.55754C448.312 2.39074 446.851 2.18113 448.58 2.02169C447.943 2.04298 447.313 2.06444 446.681 2.08616C446.355 2.1729 446.029 2.25971 445.702 2.3466C445.872 2.21791 446.042 2.08924 446.213 1.96059C447.546 1.94147 448.894 1.92331 450.234 1.9063ZM469.866 1.83535C469.789 1.9011 469.713 1.96685 469.636 2.03261C471.955 1.903 475.583 1.84924 473.525 2.26453C470.375 2.30604 467.224 2.35073 464.077 2.39979C463.868 2.35151 463.658 2.30324 463.448 2.255C465.801 2.43372 465.071 1.6292 467.113 1.85271C467.458 1.89075 466.458 2.17677 468.627 1.98814C468.549 1.92261 468.472 1.85709 468.395 1.79157C468.886 1.80607 469.376 1.82066 469.866 1.83535ZM489.848 1.90693C485.869 1.81303 490.252 1.57302 490.987 1.77179C490.985 1.77179 490.984 1.77179 490.983 1.77179C492.996 2.31547 488.667 2.0531 488.403 2.05673C488.052 2.06165 487.234 2.45108 485.324 1.88436C486.832 1.8916 488.34 1.89917 489.848 1.90693ZM476.855 1.81954C477.19 1.80617 477.005 1.90535 477.149 1.90365C477.151 1.90365 477.152 1.90365 477.153 1.90365C479.286 1.87842 484.351 1.78594 484.9 2.10503C483.324 2.13154 476.267 2.20903 475.84 1.99394C476.178 1.93578 476.516 1.87765 476.855 1.81954ZM461.859 2.10767C460.551 1.90816 463.496 1.8647 464.271 1.95712C464.417 1.97718 463.215 2.31433 461.859 2.10767ZM361.451 4.40163C358.565 4.67978 362.372 4.60119 361.067 4.86523C361.618 4.81938 362.168 4.77382 362.716 4.72855C362.295 4.61941 361.873 4.51043 361.451 4.40163ZM230.494 13.984C229.823 14.0227 230.151 14.1116 230.093 14.1187C229.654 14.1558 229.231 14.0977 229.064 14.1234C225.968 14.6052 228.048 14.5132 228.081 14.5333C228.158 14.6441 227.352 14.8565 228.498 14.8853C229.183 14.7803 229.867 14.6755 230.552 14.5708C230.899 14.6043 231.247 14.6378 231.595 14.6714C232.95 14.4065 231.157 14.5325 230.937 14.3663C230.852 14.3008 232.131 14.0955 230.494 13.984ZM356.275 4.28851C355.821 4.52007 354.69 4.84365 355.826 4.9878C355.827 4.98773 355.828 4.98766 355.83 4.98759C356.04 5.01382 356.885 4.98793 357.146 5.02689C358.971 4.652 358.255 4.40633 356.275 4.28851ZM242.812 12.4931C243.926 12.4413 245.04 12.3899 246.153 12.3389C246.145 12.4637 246.137 12.5885 246.129 12.7133C245.533 12.733 244.937 12.7529 244.34 12.7729C244.137 12.8478 243.934 12.9226 243.731 12.9974C244.48 13.0717 245.23 13.1462 245.979 13.2208C246.86 13.0927 247.749 12.964 248.634 12.836C248.219 12.8073 247.804 12.7787 247.389 12.7502C249.558 12.485 249.111 12.8265 250.92 12.7818C251.525 12.6133 252.131 12.4449 252.735 12.2767C253.637 12.3129 254.533 12.3497 255.436 12.3861C256.933 12.2012 257.057 12.1025 256.036 12.0601C256.769 11.8455 257.606 12.0091 258.498 11.8702C258.572 11.8589 258.42 11.7304 258.486 11.723C263.115 11.2257 262.889 11.619 263.637 11.5702C264.163 11.5357 266.233 11.1075 266.258 11.0198C266.287 10.9022 261.907 10.8202 268.706 10.2293C265.17 10.2142 261.182 10.8789 263.814 11.1142C262.694 11.1631 257.811 11.7015 257.493 11.7159C257.034 11.7349 257.179 11.5471 256.607 11.5925C256.27 11.6195 255.403 12.0952 252.709 11.9822C252.374 12.0775 252.039 12.1728 251.704 12.2682C251.38 12.2427 251.055 12.2174 250.731 12.192C251.372 11.9426 252.014 11.6933 252.654 11.4441C250.068 11.8813 247.863 11.684 246.304 12.1547C244.93 12.2388 244.259 12.2608 244.834 12.0399C244.422 12.0767 244.01 12.1137 243.598 12.1506C243.336 12.2648 243.074 12.3789 242.812 12.4931ZM347.835 5.06725C346.447 4.95747 345.971 5.40058 346.189 5.41093C347.41 5.46665 348.556 5.12459 347.835 5.06725ZM232.992 13.9753C234.507 13.9435 236.021 13.9123 237.535 13.8818C237.523 13.7516 237.511 13.6214 237.5 13.4912C235.998 13.6519 234.495 13.8133 232.992 13.9753ZM361.857 4.08579C362.001 4.17628 362.146 4.26679 362.29 4.35732C363.931 3.9125 365.565 4.34309 366.399 4.19471C366.577 4.16252 366.207 4.00799 365.864 3.98835C365.643 3.97565 362.157 4.03614 361.857 4.08579ZM430.815 1.67837C430.2 1.7553 429.583 1.83254 428.965 1.91008C428.997 1.79923 429.029 1.68837 429.061 1.57751C429.367 1.55122 429.672 1.525 429.977 1.49885C430.256 1.55863 430.536 1.61847 430.815 1.67837ZM423.792 1.99265C422.68 2.00777 421.591 2.02332 420.491 2.04001C424.672 1.84409 421.23 1.87205 423.785 1.6723C423.787 1.77908 423.79 1.88587 423.792 1.99265ZM412.638 2.04137C412.773 1.97189 412.907 1.90243 413.041 1.83298C414.148 1.80309 415.249 1.77429 416.344 1.74656C415.646 1.53574 414.945 1.32536 414.241 1.11542C413.837 1.12551 413.432 1.13575 413.026 1.14614C412.897 1.44453 412.768 1.74294 412.638 2.04137ZM200.86 16.2858C200.198 16.3457 197.918 16.7671 198.024 16.8307C198.987 16.828 199.951 16.8254 200.916 16.8229C200.908 16.6921 200.9 16.5613 200.892 16.4304C201.033 16.4823 201.174 16.5342 201.316 16.586C201.855 16.4848 202.395 16.3836 202.935 16.2824C203.22 16.3699 203.506 16.4575 203.791 16.545C204.054 16.3884 204.318 16.2317 204.581 16.0751C201.928 16.0972 202.042 16.3194 201.495 16.3696C201.218 16.3953 201.034 16.3314 200.932 16.3003C200.908 16.2955 200.884 16.2906 200.86 16.2858ZM233.956 13.0496C230.814 13.3043 229.051 13.8133 226.755 13.7361C228.268 14.2114 237.61 12.7173 240.976 12.9304C241.311 12.8012 241.647 12.672 241.983 12.5428C240.185 12.7928 238.912 12.7043 238.03 12.755C237.329 12.7953 237.412 12.8916 237.358 12.8949C237.355 12.8952 237.353 12.8954 237.35 12.8956C235.711 13.0021 235.195 12.9493 233.956 13.0496ZM364.167 3.48248C363.319 3.37028 361.837 3.46383 361.832 3.69178C362.662 3.71386 363.488 3.73661 364.31 3.76002C364.139 3.7106 364.312 3.50165 364.167 3.48248ZM411.339 1.44205C410.681 1.38622 409.122 1.49591 409.8 1.67279C409.923 1.70398 411.469 1.52231 410.57 1.90217C412.079 1.85427 411.713 1.47424 411.339 1.44205ZM287.654 8.88359C288.211 8.83219 288.768 8.78097 289.324 8.72994C289.446 8.62815 289.568 8.52637 289.69 8.4246C289.013 8.57732 288.334 8.73032 287.654 8.88359ZM371.3 2.96833C372.053 3.38133 373.319 2.88339 374.721 3.18748C375.234 3.16642 375.745 3.14561 376.256 3.12506C376.257 3.125 376.258 3.12495 376.259 3.12489C376.268 3.00191 376.276 2.87893 376.284 2.75595C374.637 2.82406 372.961 2.89554 371.3 2.96833ZM253.081 11.579C253.426 11.6058 253.772 11.6326 254.117 11.6594C254.717 11.5402 255.32 11.4208 255.923 11.3014C255.59 11.2828 255.256 11.2643 254.922 11.2458C254.309 11.3567 253.695 11.4678 253.081 11.579ZM380.323 2.51408C378.521 2.53721 377.859 2.95735 380.163 2.85638C381.131 2.81391 382.204 2.49087 380.323 2.51408ZM166.799 19.8039C167.412 19.7753 168.025 19.7467 168.639 19.7181C168.839 19.6154 169.039 19.5128 169.238 19.4101C168.424 19.5414 167.611 19.6727 166.799 19.8039ZM419.858 1.26762C419.787 1.35132 419.717 1.43503 419.647 1.51874C419.098 1.51519 418.547 1.51191 417.995 1.50889C418.132 1.42406 418.268 1.33925 418.405 1.25445C418.89 1.25864 419.374 1.26303 419.858 1.26762ZM170.915 19.4385C171.406 19.4047 171.898 19.3709 172.391 19.3371C172.717 19.2642 173.043 19.1914 173.364 19.119C172.908 19.125 172.441 19.1322 171.978 19.139C171.624 19.2388 171.269 19.3386 170.915 19.4385ZM397.328 1.87949C396.634 1.80481 393.863 2.21239 396.37 2.2007C397.962 2.19404 397.432 1.89094 397.328 1.87949ZM401.035 1.65438C398.42 1.55473 400.391 2.43997 403.532 1.7209C400.366 1.90792 401.189 1.66102 401.035 1.65438ZM424.163 0.531776C424.229 0.530866 424.287 0.66673 424.816 0.660662C426.715 0.638183 429.231 0.64392 430.593 0.627812C433.865 0.581675 443.866 0.194431 445.057 0.582569C445.302 0.663072 444.743 0.918627 444.843 0.930296C445.135 0.962473 446.807 0.822937 446.499 1.00975C444.864 1.02633 443.197 1.04497 441.568 1.06493C441.968 0.930351 442.369 0.795887 442.768 0.661534C438.686 0.7836 440.033 0.759073 438.858 1.05681C438.159 0.957725 437.465 0.858894 436.773 0.760357C435.273 0.892931 433.751 1.02743 432.248 1.16327C432.586 1.07562 432.925 0.988042 433.269 0.90047C430.994 0.788098 431.631 0.876669 430.391 1.09726C430.387 1.01557 430.383 0.93389 430.379 0.852206C428.186 1.09192 427.74 0.856556 427.268 0.862741C426.292 0.877803 425.051 1.86774 421.279 0.990271C419.711 1.48922 419.723 0.547409 418.802 1.04827C416.103 0.592555 421.211 0.655869 423.621 0.622885C423.623 0.622858 423.624 0.62283 423.625 0.622803C423.808 0.620353 423.516 0.5388 424.163 0.531776ZM410.411 1.35277C412.023 0.880657 405.606 1.02809 407.749 1.57886C408.066 1.58935 408.384 1.59994 408.701 1.61062C409.273 1.52433 409.845 1.43835 410.414 1.35266C410.413 1.3527 410.412 1.35274 410.411 1.35277ZM350.238 3.69556C344.312 4.21856 347.707 4.26325 349.701 3.90746C350.098 3.83688 350.312 3.75944 350.238 3.69556ZM229.441 13.1362C229.359 13.1949 229.278 13.2536 229.196 13.3123C231.171 13.082 235.019 12.9277 234.935 12.5904C233.104 12.7714 231.272 12.9535 229.441 13.1362ZM245.083 11.49C244.656 11.5072 242.916 11.6142 243.137 11.7236C243.898 11.7468 244.658 11.7701 245.418 11.7937C245.763 11.7057 246.108 11.6176 246.453 11.5297C245.963 11.554 245.198 11.4851 245.083 11.49Z" fill="white"/>
</svg>
