<svg width="44" height="45" viewBox="0 0 44 45" fill="none" xmlns="http://www.w3.org/2000/svg">
<path d="M31.4688 7.5999C31.8763 7.63392 32.2799 7.76876 32.5518 7.90459C32.8339 8.0457 33.0504 8.26118 33.2891 8.47002C33.5339 8.68427 33.836 8.92563 34.3213 9.16826C34.7958 9.40562 35.0315 9.84685 35.1387 10.2708C35.2268 10.6196 35.2312 10.9748 35.2051 11.2425C35.6499 11.4382 35.9355 11.6548 36.1221 11.8772C36.3293 12.1243 36.4021 12.3637 36.4473 12.5442L36.5352 12.8968L36.1904 12.7815L35.4531 12.5354C35.4473 12.5347 35.4396 12.5336 35.4307 12.5325C35.4059 12.5295 35.3695 12.5254 35.3252 12.5208C35.2359 12.5116 35.113 12.5009 34.9814 12.4954C34.8494 12.49 34.7113 12.4898 34.5889 12.5003C34.528 12.5055 34.4751 12.5136 34.4316 12.5228V13.8948C34.4316 14.3216 34.2867 14.6357 34.0439 14.8382C33.8076 15.0351 33.5037 15.1047 33.2217 15.1048C33.2092 15.1048 33.1669 15.1137 33.0986 15.1976C33.0332 15.2782 32.9671 15.3996 32.9062 15.5491C32.8474 15.6939 32.7966 15.8543 32.7559 16.0091C32.9243 16.3758 33.1356 16.8163 33.3994 17.344C34.442 19.4295 34.2216 21.5125 33.5332 23.2552C32.8462 24.994 31.6893 26.4088 30.8281 27.1839L30.8262 27.1819C30.5195 27.4821 29.6512 27.948 28.3877 27.7376C28.1568 27.6991 27.7999 27.8023 27.3379 28.0579C26.887 28.3074 26.3745 28.68 25.8496 29.1155C24.8006 29.986 23.7222 31.0923 23.0127 31.9271C22.9992 31.9429 22.9826 31.9562 22.9648 31.9671C22.5453 32.2251 22.0265 32.3147 21.5635 32.3675C21.4464 32.3808 21.3304 32.3919 21.2197 32.4026C21.1084 32.4135 21.0021 32.4241 20.9014 32.4358C20.6977 32.4596 20.5285 32.4879 20.3975 32.5315C20.3595 32.5442 20.3465 32.5585 20.3408 32.5677C20.3333 32.5798 20.3242 32.606 20.3252 32.6565C20.3275 32.7641 20.3772 32.9225 20.4746 33.1185C20.6663 33.5037 20.9955 33.9447 21.2432 34.2337L21.249 34.2405V34.2415C21.4053 34.441 21.73 34.6138 22.1221 34.6722C22.5096 34.7298 22.9272 34.6696 23.2559 34.4505C23.6152 34.211 24.0332 34.1892 24.3672 34.2708C24.5347 34.3118 24.6893 34.3811 24.8115 34.469C24.9298 34.5542 25.0392 34.6726 25.0762 34.8206C25.091 34.8801 25.0768 34.9432 25.0391 34.9915C25.0014 35.0397 24.9439 35.0685 24.8828 35.0687H23.4219L22.8037 35.4388C23.0746 35.4474 23.3901 35.4623 23.7012 35.4915C24.0421 35.5235 24.3868 35.5724 24.666 35.6478C24.8052 35.6854 24.9358 35.7319 25.0439 35.7903C25.1488 35.847 25.2554 35.9271 25.3135 36.0433C25.3498 36.116 25.3842 36.2082 25.3721 36.303C25.3653 36.3558 25.3436 36.4085 25.3047 36.4524C25.2671 36.4948 25.2219 36.5193 25.1816 36.5335C25.1069 36.5599 25.0255 36.5586 24.9619 36.553C24.8936 36.547 24.8183 36.5334 24.7441 36.5169C24.6026 36.4854 24.4182 36.4338 24.2705 36.3978C24.1091 36.3584 23.9721 36.3324 23.8721 36.3323C23.7581 36.3323 23.5815 36.3122 23.4014 36.2942C23.2133 36.2755 23.0039 36.2565 22.8018 36.2542C22.5975 36.2518 22.4135 36.2668 22.2715 36.3079C22.2295 36.3201 22.1941 36.3342 22.1641 36.3489C22.1956 36.3693 22.2301 36.3915 22.2666 36.4153C22.4493 36.5345 22.6889 36.6947 22.9131 36.8548C23.134 37.0126 23.3521 37.1795 23.4834 37.3108C23.5168 37.3443 23.5494 37.3792 23.5752 37.4144C23.5981 37.4456 23.6295 37.495 23.6416 37.555C23.6482 37.588 23.6507 37.6332 23.6348 37.681C23.618 37.7309 23.5862 37.7704 23.5488 37.7972C23.4836 37.8437 23.4086 37.8479 23.3662 37.8479C23.1926 37.8479 23.0165 37.781 22.8633 37.7005C22.7065 37.6181 22.5535 37.5103 22.4219 37.4065C22.2896 37.3022 22.1737 37.1989 22.0918 37.1214C22.0508 37.0826 22.018 37.0497 21.9951 37.0267C21.9913 37.0229 21.9876 37.0192 21.9844 37.0159L20.5137 36.3187C20.1589 36.2022 19.6532 36.1309 19.1738 36.0901C18.6941 36.0494 18.2572 36.0403 18.0596 36.0403C18.0561 36.0403 18.0542 36.0403 18.0537 36.0403C18.0508 36.0426 18.0403 36.0537 18.0254 36.0843C17.9934 36.1501 17.9695 36.2542 17.9473 36.3968C17.9271 36.5262 17.9075 36.6946 17.8789 36.8372C17.8504 36.9793 17.8055 37.1408 17.7139 37.263C17.6751 37.3146 17.6134 37.3448 17.5488 37.3431C17.4844 37.3413 17.4246 37.3077 17.3887 37.2542C17.2964 37.1157 17.1632 36.875 17.0527 36.5901C16.9427 36.3062 16.8496 35.9643 16.8496 35.6272C16.8496 35.3315 17.0516 35.1357 17.2725 35.014C17.4945 34.8916 17.7807 34.8166 18.0566 34.7679C18.459 34.6969 18.8763 34.6804 19.124 34.6751C19.1218 34.6677 19.1216 34.6587 19.1191 34.6507C19.07 34.4904 18.9801 34.2619 18.8682 34.0003C18.6555 33.5035 18.3707 32.9101 18.1631 32.4925C17.2023 32.0528 15.1052 31.0329 13.9062 30.2337C12.709 29.4355 12.0996 29.126 11.5654 28.0989C11.5508 28.0707 11.543 28.0389 11.543 28.0071V25.9173C10.9813 25.7328 9.90282 25.3913 9.16699 25.2073C9.01117 25.1683 8.88112 25.0656 8.77441 24.9427C8.66668 24.8185 8.56999 24.6587 8.48242 24.4798C8.30704 24.1213 8.15419 23.6543 8.02441 23.1565C7.76434 22.1589 7.58587 20.9987 7.50098 20.2347C7.5002 20.2276 7.50002 20.2203 7.5 20.2132C7.5 19.4861 7.57627 18.2611 7.80566 16.9378C8.03467 15.6168 8.41869 14.1816 9.04004 13.0423C9.83111 11.592 11.3369 10.6841 12.7412 10.1097C14.1482 9.53419 15.497 9.27692 15.9902 9.15361C16.1379 9.11676 16.2868 9.1115 16.416 9.1751C16.5526 9.24247 16.6241 9.36515 16.6572 9.48955C16.6892 9.60979 16.6911 9.74897 16.6807 9.88994C16.67 10.0337 16.6454 10.1949 16.6133 10.3636C16.5811 10.5327 16.5403 10.7152 16.499 10.9026C16.4575 11.0911 16.415 11.2859 16.376 11.4827C16.2978 11.8776 16.2373 12.273 16.2373 12.6321C16.2373 13.3708 16.361 14.2394 16.5479 15.0179C16.7361 15.8019 16.9824 16.469 17.2148 16.8177C17.2359 16.8488 17.3081 16.9042 17.4893 16.9534C17.6613 17.0001 17.8943 17.0317 18.1787 17.0491C18.7464 17.0838 19.4869 17.0603 20.291 17.013C21.8851 16.9192 23.739 16.7288 24.8828 16.7288C25.4355 16.7287 25.7006 16.6192 25.8252 16.4974C25.9411 16.384 25.977 16.2169 25.9482 15.972C25.9188 15.7219 25.8314 15.4557 25.7559 15.1663C25.7197 15.0277 25.6863 14.8843 25.6719 14.7483C25.6575 14.6133 25.66 14.4707 25.7041 14.3382C25.8178 13.997 25.8975 13.3699 26.3945 12.6741C26.5502 12.4561 26.7464 12.2312 26.9961 12.0013C27.2222 11.6589 27.4974 11.3537 27.8252 11.1897C28.3257 10.9395 28.758 10.6921 29.0928 10.4485C29.4306 10.2027 29.6528 9.97284 29.7578 9.76299C29.8065 9.66548 29.835 9.54808 29.8535 9.40752C29.873 9.25911 29.8781 9.12138 29.8955 8.94756C29.928 8.62266 29.9968 8.24572 30.3008 7.9417C30.6143 7.62871 31.0661 7.56637 31.4688 7.5999Z" fill="#000626" fill-opacity="0.3"/>
</svg>
