<svg width="44" height="45" viewBox="0 0 44 45" fill="none" xmlns="http://www.w3.org/2000/svg">
<g clip-path="url(#clip0_127_4223)">
<path d="M33.916 13.3867C33.916 13.9246 33.8786 14.4603 33.8105 14.9912H34.375V14.8145C34.375 14.659 34.5008 14.5322 34.6562 14.5322H36.3848C36.5402 14.5322 36.667 14.659 36.667 14.8145V16.543C36.6669 16.6983 36.5401 16.8242 36.3848 16.8242H34.6562C34.5009 16.8242 34.3751 16.6983 34.375 16.543V15.9072H33.6582C33.51 16.6332 33.301 17.3462 33.0264 18.0352C32.439 19.5087 31.5774 20.8478 30.4922 21.9756C29.9317 22.558 29.3159 23.0764 28.6572 23.5273L33.4453 40.6807C33.4869 40.8303 33.3996 40.9856 33.25 41.0273L32.4678 41.2451C32.3183 41.2865 32.1629 41.1993 32.1211 41.0498L30.6045 35.6162H13.8086L12.292 41.0498C12.2501 41.1993 12.0949 41.2869 11.9453 41.2451L11.1631 41.0273C11.0138 40.9855 10.9264 40.8301 10.9678 40.6807L15.7617 23.5029C15.1169 23.0578 14.5139 22.5472 13.9639 21.9756C12.8786 20.8478 12.017 19.5087 11.4297 18.0352C11.1551 17.3462 10.9461 16.6332 10.7979 15.9072H9.625V16.543C9.62489 16.6983 9.49816 16.8242 9.34277 16.8242H7.61426C7.45897 16.8241 7.33311 16.6983 7.33301 16.543V14.8145C7.33301 14.6591 7.45891 14.5323 7.61426 14.5322H9.34277C9.49822 14.5322 9.625 14.659 9.625 14.8145V14.9912H10.6455C10.5774 14.4604 10.54 13.9246 10.54 13.3867H33.916ZM14.1924 34.2412H30.2207L29.1045 30.2461C28.7302 30.5189 28.2136 30.7689 27.5762 30.9814C26.8739 31.2155 26.0396 31.4016 25.1221 31.5283C24.2047 31.655 23.2215 31.7207 22.2285 31.7207C21.2354 31.7207 20.2515 31.655 19.334 31.5283C18.4165 31.4016 17.5831 31.2155 16.8809 30.9814C16.2218 30.7618 15.6915 30.5025 15.3145 30.2188L14.1924 34.2412ZM15.5996 29.1992H28.8135L27.4326 24.2568C27.1923 24.3811 26.9499 24.5013 26.7012 24.6084C25.2833 25.2187 23.7632 25.5322 22.2285 25.5322C20.6938 25.5322 19.1737 25.2187 17.7559 24.6084C17.4937 24.4955 17.2373 24.3693 16.9844 24.2373L15.5996 29.1992Z" fill="#000626" fill-opacity="0.3"/>
<path d="M26.7695 5.13225C27.0242 5.00556 27.3333 5.10882 27.4606 5.36321C27.5877 5.61755 27.4851 5.92637 27.2315 6.05429C27.2303 6.0549 27.2283 6.05749 27.2243 6.05966C27.2156 6.06441 27.2 6.07169 27.1813 6.08294C27.1431 6.10598 27.0903 6.14127 27.0345 6.18499C26.9115 6.28132 26.8247 6.38252 26.7928 6.46607C26.6745 6.77585 26.6402 6.97725 26.6406 7.1124C26.641 7.23456 26.6694 7.3211 26.7212 7.40781C26.7825 7.51042 26.8765 7.61613 27.0327 7.77841C27.1796 7.931 27.3736 8.12483 27.5663 8.36744C28.0534 8.98125 28.0069 9.6165 27.8151 10.1041C27.6449 10.5362 27.3124 10.9397 27.2476 11.0369C27.0895 11.274 26.7685 11.3382 26.5314 11.1801C26.2943 11.022 26.2301 10.7011 26.3882 10.464C26.5526 10.2174 26.737 10.0225 26.8537 9.72633C26.9483 9.48599 26.9584 9.26207 26.757 9.00839C26.602 8.81324 26.4493 8.65855 26.2897 8.49277C26.1395 8.33668 25.9648 8.15335 25.835 7.93596C25.6957 7.70257 25.6104 7.43672 25.6094 7.11598C25.6084 6.80806 25.6856 6.47427 25.8296 6.09726C25.9601 5.75588 26.2188 5.51326 26.3989 5.37216C26.4944 5.29747 26.5826 5.23966 26.6478 5.20029C26.6807 5.18041 26.7096 5.16497 26.7302 5.15374C26.7403 5.14821 26.7487 5.14282 26.7552 5.13941C26.7584 5.13776 26.7619 5.13697 26.7642 5.13583L26.7678 5.13225H26.7695Z" fill="#000626" fill-opacity="0.3"/>
<path d="M22.117 3.2614C22.3487 3.1996 22.6 3.30716 22.7114 3.52995C22.8388 3.7849 22.7354 4.09547 22.4805 4.22282L22.4662 4.22999C22.4525 4.23742 22.4308 4.2493 22.4035 4.26579C22.3481 4.29924 22.2715 4.34914 22.1904 4.4126C22.0168 4.54854 21.8735 4.70756 21.8145 4.86198C21.6524 5.2864 21.599 5.57682 21.5996 5.78581C21.6003 5.98156 21.6487 6.12574 21.7321 6.26563C21.8253 6.42166 21.9633 6.57654 22.1707 6.792C22.3688 6.99768 22.6201 7.24978 22.8708 7.56544C23.473 8.32421 23.4168 9.10302 23.1769 9.71208C22.9589 10.2655 22.5405 10.7679 22.4375 10.9224C22.2794 11.1595 21.9585 11.2237 21.7214 11.0656C21.4843 10.9075 21.4201 10.5866 21.5781 10.3495C21.7807 10.0457 22.051 9.75164 22.2155 9.33432C22.358 8.97252 22.3779 8.60482 22.0615 8.20639C21.8487 7.93843 21.6383 7.72684 21.4277 7.50814C21.2263 7.2989 21.0076 7.06649 20.8459 6.79558C20.6746 6.50869 20.5696 6.18423 20.5684 5.78939C20.5672 5.40763 20.6635 4.98471 20.8512 4.49317C21.0088 4.08102 21.3242 3.78043 21.5549 3.59978C21.6754 3.50541 21.7875 3.4329 21.87 3.38314C21.9115 3.35811 21.9465 3.33795 21.972 3.32406C21.9848 3.3171 21.9963 3.31207 22.0042 3.30795C22.0079 3.30604 22.0107 3.30386 22.0132 3.30258L22.0168 3.30079L22.0186 3.299L22.117 3.2614Z" fill="#000626" fill-opacity="0.3"/>
<path d="M17.1436 5.13225C17.3982 5.00556 17.7073 5.10882 17.8346 5.36321C17.9617 5.61755 17.8591 5.92637 17.6055 6.05429C17.6043 6.0549 17.6023 6.05749 17.5983 6.05966C17.5896 6.06441 17.574 6.07169 17.5553 6.08294C17.5172 6.10598 17.4644 6.14127 17.4085 6.18499C17.2855 6.28132 17.1988 6.38252 17.1668 6.46607C17.0485 6.77585 17.0143 6.97725 17.0147 7.1124C17.0151 7.23456 17.0435 7.3211 17.0952 7.40781C17.1565 7.51042 17.2505 7.61613 17.4067 7.77841C17.5536 7.931 17.7476 8.12483 17.9403 8.36744C18.4274 8.98125 18.3809 9.6165 18.1891 10.1041C18.0189 10.5362 17.6864 10.9397 17.6216 11.0369C17.4635 11.274 17.1426 11.3382 16.9054 11.1801C16.6684 11.022 16.6041 10.7011 16.7622 10.464C16.9266 10.2174 17.111 10.0225 17.2277 9.72633C17.3223 9.48599 17.3325 9.26207 17.131 9.00839C16.976 8.81324 16.8233 8.65855 16.6637 8.49277C16.5135 8.33668 16.3388 8.15335 16.209 7.93596C16.0698 7.70257 15.9844 7.43672 15.9834 7.11598C15.9824 6.80806 16.0596 6.47427 16.2036 6.09726C16.3341 5.75588 16.5928 5.51326 16.773 5.37216C16.8684 5.29747 16.9566 5.23966 17.0218 5.20029C17.0548 5.18041 17.0836 5.16497 17.1042 5.15374C17.1143 5.14821 17.1227 5.14282 17.1292 5.13941C17.1324 5.13776 17.136 5.13697 17.1382 5.13583L17.1418 5.13225H17.1436Z" fill="#000626" fill-opacity="0.3"/>
</g>
<rect x="0.5" y="0.59375" width="43" height="43" stroke="white"/>
<defs>
<clipPath id="clip0_127_4223">
<rect y="0.09375" width="44" height="44" fill="white"/>
</clipPath>
</defs>
</svg>
