<svg width="44" height="45" viewBox="0 0 44 45" fill="none" xmlns="http://www.w3.org/2000/svg">
<g clip-path="url(#clip0_127_7913)">
<path d="M13.6749 11.3672C15.9406 11.1438 18.5889 11.2084 21.1495 11.4082C23.7112 11.608 26.1913 11.9442 28.1212 12.2666C29.086 12.4278 29.9147 12.5857 30.548 12.7216C31.1759 12.8565 31.6246 12.9724 31.8204 13.0507C32.5214 13.331 33.806 13.5469 35.0294 13.583C35.6393 13.6009 36.2274 13.5739 36.712 13.4902C37.2042 13.4051 37.5605 13.2665 37.7413 13.0859C38.1184 12.7089 38.7554 12.4333 39.3732 12.2412C39.9971 12.0472 40.6299 11.9292 41.0245 11.8798L41.3829 11.8349L41.173 12.1289L39.8956 13.915C40.2044 13.9279 40.572 13.9619 40.8947 14.0283C41.1118 14.073 41.3215 14.135 41.4796 14.2226C41.6323 14.3073 41.7832 14.4431 41.7833 14.6474C41.7833 14.7693 41.7237 14.885 41.6544 14.9824C41.5827 15.0831 41.4846 15.1865 41.3751 15.289C41.1563 15.4939 40.8678 15.7172 40.5997 15.9316C40.3263 16.1504 40.0737 16.3601 39.9074 16.5478C39.8241 16.6418 39.7702 16.721 39.7443 16.7851C39.7196 16.8463 39.7259 16.8782 39.7355 16.8974C39.8446 17.1156 40.1025 17.4921 40.3888 17.8828C40.6402 18.2258 40.9075 18.5711 41.0988 18.8125C41.4907 18.6739 42.0408 18.5196 42.5382 18.4716C42.8096 18.4456 43.0785 18.4497 43.3009 18.5127C43.5266 18.5767 43.7257 18.7088 43.8058 18.9492C43.8905 19.2039 43.885 19.5795 43.8204 19.9804C43.7549 20.3879 43.6242 20.8454 43.4376 21.2744C43.2516 21.7023 43.006 22.1103 42.7072 22.414C42.4082 22.7178 42.0439 22.9284 41.6251 22.9287C40.8903 22.9287 40.7047 22.9309 40.4474 23.0273C40.3111 23.0784 40.1568 23.1548 39.8986 23.2793C39.6434 23.4023 39.2966 23.5674 38.7863 23.7861C37.9557 24.1421 36.7552 24.4102 35.6027 24.6015C34.5265 24.7801 33.4792 24.8922 32.7902 24.9463V28.8623C32.7904 29.2519 32.989 29.7271 33.2677 30.1103C33.4057 30.3 33.5584 30.4604 33.7062 30.5713C33.8569 30.6842 33.9866 30.7342 34.0822 30.7343C34.4226 30.7345 34.6044 31.0215 34.6954 31.2744C34.7905 31.5388 34.8204 31.8484 34.8204 32.0527V32.2109H32.5343L32.4904 32.124C32.2962 31.7356 31.8472 30.7795 31.6115 30.0722C31.4731 29.6571 31.1201 29.018 30.798 28.5527C30.6736 28.3731 30.5592 28.2288 30.4699 28.1347V29.9736L31.0236 30.8047L31.0499 30.8447V32.2109H29.4415C29.291 32.2109 29.1814 32.1079 29.1085 32.0058C29.0323 31.899 28.9676 31.7545 28.9113 31.5927C28.7979 31.2669 28.7049 30.8299 28.632 30.374C28.4858 29.4607 28.4123 28.4361 28.4122 27.9912C28.4121 27.725 28.2278 27.5007 27.9425 27.3203C27.6715 27.1491 27.3432 27.0408 27.1154 26.9922C21.996 27.9153 17.4223 26.9884 15.757 26.4013L15.5216 26.3281C15.2666 26.2551 14.9635 26.1863 14.7042 26.1621C14.5289 26.1457 14.3909 26.1515 14.3038 26.1787C14.2622 26.1918 14.2433 26.2071 14.2355 26.2158C14.2306 26.2213 14.2247 26.2292 14.2247 26.2509C14.2247 26.5951 14.0532 26.9215 13.7872 27.2256C13.5203 27.5307 13.1443 27.8296 12.7042 28.123C12.5143 28.2496 12.4336 28.3816 12.4035 28.5088C12.3721 28.6416 12.3907 28.7912 12.4415 28.9609C12.4933 29.1335 12.569 29.3016 12.6408 29.4834C12.7084 29.6547 12.7745 29.844 12.7745 30.0224C12.7747 30.0439 12.7862 30.094 12.8273 30.1797C12.8664 30.2613 12.925 30.3606 13.0011 30.4736C13.1535 30.6998 13.3675 30.9706 13.6076 31.2539C14.0873 31.82 14.6642 32.4267 15.049 32.8115L15.0949 32.8574V33.6611H13.1202L13.0724 33.6025C12.6853 33.1186 11.7368 31.9175 11.0392 30.9873C10.6689 30.4935 10.4931 29.8838 10.421 29.332C10.3556 28.8311 10.3763 28.3664 10.4181 28.0566C10.2272 27.9129 9.78451 27.7487 9.22279 28.123C8.84776 28.373 8.71115 28.8169 8.60169 29.3642C8.54895 29.628 8.50103 29.9199 8.43177 30.1923C8.36175 30.4678 8.26576 30.7416 8.10658 30.9804C7.8653 31.3425 7.97642 31.776 8.12318 32.1797C8.15686 32.2723 8.19675 32.3751 8.22572 32.457C8.2555 32.5412 8.28261 32.6277 8.29408 32.705C8.30478 32.7775 8.308 32.8803 8.24427 32.9658C8.17573 33.0577 8.06833 33.081 7.97474 33.081C7.82844 33.081 7.67524 33.0357 7.5304 32.9726C7.38383 32.9087 7.23497 32.8215 7.09583 32.7275C6.81783 32.5397 6.56304 32.3158 6.41224 32.165L6.37806 32.1298L6.3683 32.081C6.26953 31.5377 6.18159 30.6258 6.23548 29.6435C6.28927 28.6635 6.48531 27.5958 6.96693 26.7529C7.84843 25.2103 7.341 24.1186 7.00599 23.7675C6.4529 23.5083 6.0757 23.0111 5.82728 22.3974C5.57383 21.7712 5.44675 21.0097 5.4015 20.2187C5.31217 18.6559 5.54002 16.9385 5.7804 15.8164C5.73315 15.657 5.63233 15.5089 5.48744 15.4668C5.33952 15.4241 5.05874 15.4668 4.6056 15.9199C3.64852 16.877 2.60277 17.1268 2.17298 17.1269H2.04994L2.01966 17.0068C1.96771 16.799 1.93298 16.478 2.0138 16.1992C2.05494 16.0573 2.12876 15.9176 2.25404 15.8134C2.38122 15.7078 2.54826 15.6494 2.75306 15.6494C3.09923 15.6493 3.27365 15.4309 3.4972 15.1328C3.70867 14.8508 3.97055 14.4892 4.49427 14.4892C4.57643 14.4892 4.60994 14.4759 4.62025 14.4707C4.62069 14.4672 4.62148 14.4618 4.62122 14.4541C4.6199 14.417 4.60566 14.3591 4.57435 14.2734C4.54368 14.1895 4.50271 14.095 4.45619 13.9834C4.27673 13.5526 4.02691 12.9073 4.35267 12.2558C4.58238 11.7966 4.90166 11.4657 5.339 11.3408C5.77274 11.217 6.28679 11.3064 6.8849 11.6054C7.42113 11.8738 7.60528 12.4026 7.61048 12.8984C7.61319 13.1582 7.5666 13.4207 7.49037 13.6513L8.46107 13.0683C8.99156 12.5813 9.73167 12.2133 10.6115 11.9394C11.5003 11.6627 12.5421 11.4788 13.6749 11.3672ZM5.94349 12.0371C5.46295 12.0372 5.07337 12.4266 5.07337 12.9072C5.07348 13.3877 5.46302 13.7772 5.94349 13.7773C6.42405 13.7773 6.8135 13.3877 6.81361 12.9072C6.81361 12.4266 6.42412 12.0371 5.94349 12.0371Z" fill="#000626" fill-opacity="0.3"/>
</g>
<rect x="0.5" y="0.59375" width="43" height="43" stroke="white"/>
<defs>
<clipPath id="clip0_127_7913">
<rect y="0.09375" width="44" height="44" fill="white"/>
</clipPath>
</defs>
</svg>
