<svg width="44" height="45" viewBox="0 0 44 45" fill="none" xmlns="http://www.w3.org/2000/svg">
<g clip-path="url(#clip0_127_4288)">
<path d="M34.2903 5.85928C34.4261 5.73732 34.6036 5.73941 34.761 5.7919C35.1388 5.91785 35.2372 5.93673 35.2796 5.94522C35.3106 5.95144 35.3399 5.95672 35.386 5.97647C35.4207 5.99137 35.4706 6.01683 35.552 6.05752C35.5855 6.07433 35.6138 6.10061 35.6331 6.13272C35.7034 6.24994 35.7619 6.37647 35.8137 6.49209C35.8673 6.61167 35.9133 6.71751 35.9632 6.81045C36.0673 7.00446 36.1447 7.05651 36.2288 7.05655C36.4175 7.05648 36.5352 6.98735 36.6555 6.86709C36.7203 6.80242 36.782 6.72669 36.8567 6.63565C36.9293 6.54716 37.0119 6.44734 37.1096 6.34951C37.2727 6.18628 37.456 6.11668 37.6487 6.13272C37.7824 6.14393 37.907 6.19565 38.0178 6.25869L38.1243 6.3251L38.1633 6.3583C38.1745 6.37101 38.184 6.38602 38.1917 6.40127C38.3005 6.61954 38.4224 7.16682 38.2024 7.82705C38.1774 7.90222 38.1776 7.94767 38.1819 7.97158C38.1855 7.9911 38.1933 8.00455 38.2092 8.01846C38.2538 8.05718 38.3561 8.0948 38.5413 8.11026C38.7176 8.12492 38.9293 8.11733 39.1526 8.10537C39.37 8.09372 39.6028 8.07803 39.801 8.07803C39.9076 8.07808 40.0283 8.09356 40.1184 8.16397C40.1685 8.20322 40.2064 8.25717 40.2229 8.32217C40.2385 8.38433 40.2314 8.44419 40.218 8.49209C40.1924 8.58326 40.1334 8.66831 40.0716 8.74014C40.0066 8.81562 39.9237 8.89322 39.8303 8.96963C39.4608 9.272 38.8604 9.60635 38.3176 9.74209C37.536 9.93759 37.4475 10.2823 37.4475 10.3163C37.4474 10.3557 37.4339 10.3927 37.4124 10.4247C38.4235 11.4437 38.8181 12.9912 38.2952 14.4296C36.716 18.7724 32.4544 25.7952 26.0569 30.7001C21.8717 33.9088 18.2627 35.5171 15.2346 36.2343C12.5522 36.8696 10.4997 36.7617 9.21511 36.623L8.7112 36.5634L8.51686 36.5341C7.499 36.3541 6.64065 35.7799 6.07643 34.9921C6.07008 34.9957 6.06381 34.9997 6.0569 35.0028C5.98475 35.0355 5.90944 35.0289 5.84792 35.0009L5.76882 34.9765C5.68059 34.9609 5.56197 34.9765 5.39577 35.0605C5.16861 35.1753 4.87272 35.409 4.4905 35.8192C4.09463 36.2442 3.71398 36.5334 3.41042 36.6425C3.262 36.6958 3.09008 36.7214 2.94265 36.6444C2.78086 36.5598 2.72096 36.3923 2.71511 36.2265C2.70106 35.8287 2.68387 35.7301 2.67702 35.6874C2.672 35.6561 2.66687 35.6271 2.66921 35.5771C2.67102 35.5393 2.67709 35.4833 2.68679 35.3925C2.69079 35.3554 2.70562 35.3201 2.72878 35.2909C2.81408 35.184 2.91291 35.085 3.00319 34.996C3.09658 34.9039 3.17959 34.8233 3.24929 34.744C3.39452 34.5787 3.41632 34.4878 3.38698 34.4091C3.32095 34.2323 3.21456 34.1468 3.05983 34.0761C2.97665 34.0381 2.88408 34.0068 2.77272 33.9687C2.66444 33.9316 2.5421 33.8883 2.41628 33.831C2.20641 33.7352 2.07704 33.5883 2.02468 33.4022C1.9884 33.2731 1.99366 33.1385 2.01393 33.0126L2.03835 32.8896L2.05593 32.8407C2.06389 32.8259 2.07463 32.8122 2.0862 32.7997C2.25242 32.6215 2.72254 32.3157 3.41823 32.2909C3.49729 32.2881 3.53984 32.2721 3.56081 32.2597C3.57794 32.2495 3.58749 32.2374 3.59499 32.2177C3.6158 32.1625 3.6159 32.0538 3.56569 31.8749C3.51781 31.7045 3.43623 31.5087 3.34694 31.3036C3.25999 31.1039 3.16431 30.8908 3.09499 30.705C3.0578 30.6051 3.03028 30.4869 3.06472 30.3778C3.084 30.3172 3.12091 30.2627 3.17604 30.2245C3.22883 30.1881 3.28759 30.174 3.33718 30.1698C3.43149 30.162 3.53155 30.1878 3.62038 30.2206C3.71382 30.2551 3.81594 30.3053 3.92018 30.3661C4.33268 30.6067 4.85527 31.0525 5.17214 31.5136C5.27649 31.6654 5.37698 31.779 5.46804 31.8661C5.90274 30.0601 7.59007 28.8107 9.46511 28.9491L9.6614 28.9687L9.98952 29.0077C10.7977 29.0974 11.9125 29.1561 13.471 28.787C15.2901 28.3561 17.9317 27.2856 21.3997 24.6269C26.505 20.7128 29.9597 14.955 31.1018 11.8144C31.6723 10.2457 33.1619 9.27802 34.7415 9.2958C34.7501 9.2403 34.7775 9.19247 34.8137 9.15616L34.8645 9.09073C34.9101 9.01355 34.9368 8.89703 34.9163 8.71182C34.8881 8.45879 34.7727 8.09941 34.5217 7.59756C34.2621 7.07825 34.1244 6.62127 34.1282 6.29873C34.1301 6.14083 34.1664 5.97063 34.2903 5.85928Z" fill="#000626" fill-opacity="0.3"/>
</g>
<rect x="0.5" y="0.59375" width="43" height="43" stroke="white"/>
<defs>
<clipPath id="clip0_127_4288">
<rect y="0.09375" width="44" height="44" fill="white"/>
</clipPath>
</defs>
</svg>
