<svg width="44" height="45" viewBox="0 0 44 45" fill="none" xmlns="http://www.w3.org/2000/svg">
<g clip-path="url(#clip0_127_7188)">
<path d="M7.06629 27.1733C6.83203 29.2816 7.55433 31.3704 7.94476 32.1513C8.07944 32.4442 8.82324 32.444 8.82324 32.7368V33.9082L6.77347 33.9081C6.57826 33.4201 6.18783 32.3269 6.18783 31.8584C6.18783 31.2727 5.30935 26.8803 5.60218 26.0019C5.83644 25.2991 4.91892 25.5139 4.43088 25.7091V27.1733C4.33327 28.6374 4.19662 31.7412 4.43088 32.444C4.72371 33.3225 4.72371 33.9082 5.60218 34.4939C6.30496 34.9624 5.895 35.4699 5.60218 35.6652H3.25958V33.3225C3.25958 32.8539 2.86915 30.5894 2.67394 29.5158C2.67394 28.9301 2.49824 27.7003 1.79546 27.466C0.916992 27.1731 1.20982 20.4382 1.50264 19.5597C1.7369 18.857 1.40503 17.1195 1.20982 16.3387C1.11221 15.6554 0.916992 13.9961 0.916992 12.8248C0.916992 11.3608 2.08829 10.4822 3.25958 9.89655C4.43088 9.31086 9.40889 9.60372 10.5802 10.1894C11.7515 10.7751 17.9008 11.0678 22.2931 10.4822C26.6855 9.89664 29.3209 10.4822 30.4922 11.0678C31.6635 11.6534 34.2989 10.775 35.7631 10.4822C37.2272 10.1895 36.9344 10.1894 36.9344 9.31095C36.9344 8.60817 37.7152 8.62769 38.1056 8.7253C38.2033 8.92051 38.8084 9.31095 40.4482 9.31095C42.0881 9.31095 42.3028 8.92051 42.2052 8.7253H43.0837C42.8884 9.11573 42.3223 9.95516 41.6195 10.1894C40.7411 10.4822 39.5698 10.1894 39.2769 10.4822C38.9841 10.7751 40.1554 11.9464 40.1554 12.8248C40.1554 13.7033 43.0837 16.6315 43.0837 17.51C43.0837 18.3885 41.6195 18.9741 41.0339 18.3885L41.0338 18.3885C40.4482 17.8029 40.4482 17.8029 39.2769 18.3885C38.3399 18.8571 37.3248 18.1933 36.9344 17.8029C36.6415 17.7053 35.8802 17.6858 35.1774 18.3885C34.2989 19.267 34.8846 20.7311 34.0061 22.1952C33.1276 23.6594 30.1994 25.4163 29.3209 25.7091C28.6181 25.9434 27.8568 27.1733 27.564 27.7589C27.4664 28.4422 27.3297 30.1015 27.564 31.2728C27.8568 32.7369 28.1496 32.7369 29.3209 33.9082C30.258 34.8453 29.7114 35.4699 29.3209 35.6652H27.2712L26.6855 34.4939C26.4513 34.0253 25.807 33.9082 25.5142 33.9082V25.4163C25.4166 25.2211 24.9871 24.7721 24.0501 24.5378C22.8788 24.245 20.5362 25.1235 16.7295 25.7091C13.6841 26.1777 9.01845 24.3426 7.06629 23.3665C7.1639 23.757 7.30055 25.0649 7.06629 27.1733Z" fill="#000626" fill-opacity="0.3" stroke="#000626" stroke-opacity="0.3" stroke-width="0.319444"/>
</g>
<rect x="0.5" y="0.59375" width="43" height="43" stroke="white"/>
<defs>
<clipPath id="clip0_127_7188">
<rect y="0.09375" width="44" height="44" fill="white"/>
</clipPath>
</defs>
</svg>
