<svg width="44" height="45" viewBox="0 0 44 45" fill="none" xmlns="http://www.w3.org/2000/svg">
<g clip-path="url(#clip0_127_8666)">
<path d="M22 0.09375C34.1503 0.09375 44 9.94349 44 22.0938C44 34.244 34.1503 44.0938 22 44.0938C9.84974 44.0938 0 34.244 0 22.0938C0 9.94349 9.84974 0.09375 22 0.09375ZM25.0156 24.5186C24.5703 24.2226 24.0933 24.1253 23.5752 24.2295C23.5483 24.2387 23.5222 24.2479 23.4961 24.2568C23.1173 24.3858 22.8343 24.5889 22.5322 24.8555C22.4446 24.9339 22.3566 25.0122 22.2676 25.0889C22.049 25.277 21.8349 25.4705 21.6221 25.666C21.4454 25.8285 21.2678 25.9894 21.0869 26.1465C21.0085 26.2121 20.9316 26.28 20.8555 26.3486C20.7797 26.4366 20.7045 26.5234 20.625 26.6074C20.0916 26.927 20.0911 26.9268 19.459 26.9053C19.3721 26.9031 19.2852 26.9027 19.1982 26.9023C18.9413 26.9028 18.6847 26.8986 18.4277 26.8936V25.6211H7.33301V36.7607H18.4277V34.8057C19.2796 34.8086 20.1315 34.8111 20.9834 34.8125C21.3977 34.8132 21.8122 34.8139 22.2266 34.8154C22.5904 34.8168 22.9545 34.8179 23.3184 34.8184C23.5106 34.8185 23.7032 34.8185 23.8955 34.8193C24.0791 34.8203 24.2627 34.8213 24.4463 34.8213C24.5143 34.8212 24.5824 34.8203 24.6504 34.8203C25.6211 34.828 26.1595 34.4084 26.8711 33.7451C27.0779 33.552 27.2878 33.3652 27.5049 33.1855C27.7022 33.0225 27.8952 32.8556 28.085 32.6826C28.2092 32.5693 28.3338 32.4563 28.4609 32.3467C28.6615 32.1771 28.8589 32.0042 29.0537 31.8271C29.1807 31.7116 29.3083 31.5968 29.4385 31.4854C29.6242 31.3292 29.8054 31.1691 29.9834 31.0029C30.2174 30.7841 30.4534 30.5697 30.6992 30.3662C30.8965 30.2032 31.0896 30.0362 31.2793 29.8633C31.4036 29.7499 31.5281 29.637 31.6553 29.5273C31.8559 29.3577 32.0532 29.1849 32.248 29.0078C32.3789 28.8887 32.51 28.7706 32.6445 28.6562C33.1485 28.2343 33.4971 27.8442 33.6152 27.1475C33.6774 26.5679 33.5465 26.0715 33.2168 25.6064C32.9014 25.2151 32.549 24.9371 32.0547 24.8838C31.1289 24.8218 30.5835 25.3027 29.9062 25.916C29.7781 26.0325 29.6495 26.1489 29.5186 26.2617C29.3481 26.4059 29.1785 26.5509 29.0127 26.7012C28.8017 26.8929 28.5898 27.0834 28.376 27.2715C28.344 27.2996 28.3133 27.3272 28.2822 27.3545C28.1205 27.4965 27.9583 27.6383 27.7959 27.7793C27.6576 27.8993 27.5186 28.019 27.3838 28.1436C27.3575 28.1681 27.3322 28.192 27.3066 28.2158C27.2539 28.2648 27.2011 28.3142 27.1484 28.3633C27.1115 28.3983 27.1113 28.3983 27.0752 28.4326C27.051 28.4552 27.0274 28.4771 27.0039 28.499C26.9828 28.5189 26.9618 28.5383 26.9414 28.5576C26.9139 28.5794 26.887 28.6009 26.8604 28.6221C26.4744 28.8332 26.4741 28.8325 26.0264 28.8223C25.9666 28.8213 25.9065 28.8206 25.8467 28.8203C25.6896 28.8198 25.5321 28.8194 25.375 28.8174C25.2126 28.8153 25.0501 28.8134 24.8877 28.8125C24.5375 28.8105 24.1871 28.8079 23.8369 28.8037C23.9219 28.7583 23.9219 28.7577 23.9873 28.7041C24.0134 28.6813 24.0391 28.6589 24.0645 28.6367C24.0935 28.6114 24.1222 28.5871 24.1504 28.5625C24.3431 28.3937 24.5355 28.2241 24.7314 28.0596C24.9914 27.8428 25.2331 27.6191 25.4414 27.3447C25.7895 26.829 25.8652 26.2566 25.7793 25.6367C25.6584 25.1372 25.4015 24.8141 25.0156 24.5186ZM23.833 7.42676C22.6352 7.42718 21.6346 8.30134 21.3916 9.4668C19.433 9.97272 17.6213 11.0783 16.1768 12.6895C14.2941 14.7895 13.1783 17.5843 13.0254 20.5332H8.00781C7.63549 20.5332 7.33311 20.8458 7.33301 21.2314C7.33334 21.6169 7.63563 21.9297 8.00781 21.9297H39.6592L39.7949 21.916C40.1019 21.8509 40.3327 21.5686 40.333 21.2314C40.3329 20.8941 40.102 20.612 39.7949 20.5469L39.6592 20.5332H34.6416C34.4887 17.5843 33.3729 14.7895 31.4902 12.6895C30.0457 11.0783 28.234 9.97272 26.2754 9.4668C26.0322 8.30117 25.0311 7.42676 23.833 7.42676Z" fill="#D9D9D9"/>
</g>
<defs>
<clipPath id="clip0_127_8666">
<rect width="44" height="44" fill="white" transform="translate(0 0.09375)"/>
</clipPath>
</defs>
</svg>
