<svg width="44" height="45" viewBox="0 0 44 45" fill="none" xmlns="http://www.w3.org/2000/svg">
<g clip-path="url(#clip0_127_7266)">
<path d="M22 0.09375C34.1503 0.09375 44 9.94349 44 22.0938C44 34.244 34.1503 44.0938 22 44.0938C9.84974 44.0938 0 34.244 0 22.0938C0 9.94349 9.84974 0.09375 22 0.09375ZM21.6484 9.34375C18.9822 9.34375 16.8242 11.6677 16.8242 14.5391V16.7656H14.0674C12.926 16.7657 12 17.763 12 18.9922V28.6406C12 31.099 13.852 33.0936 16.1348 33.0938H27.1621C29.4449 33.0936 31.2969 31.099 31.2969 28.6406V18.9922C31.2969 17.763 30.3709 16.7657 29.2295 16.7656H26.4727V14.5391C26.4727 11.6677 24.3147 9.34375 21.6484 9.34375ZM17.8584 18.9922C18.1324 18.9923 18.3951 19.1097 18.5889 19.3184C18.7827 19.5271 18.8916 19.8102 18.8916 20.1055C18.8916 20.4007 18.7827 20.6838 18.5889 20.8926C18.3951 21.1013 18.1324 21.2186 17.8584 21.2188C17.5842 21.2188 17.3208 21.1014 17.127 20.8926C16.9331 20.6838 16.8242 20.4007 16.8242 20.1055C16.8242 19.8102 16.9331 19.5271 17.127 19.3184C17.3208 19.1096 17.5842 18.9922 17.8584 18.9922ZM25.4385 18.9922C25.7126 18.9922 25.9761 19.1096 26.1699 19.3184C26.3637 19.5271 26.4727 19.8102 26.4727 20.1055C26.4727 20.4007 26.3637 20.6838 26.1699 20.8926C25.9761 21.1014 25.7126 21.2188 25.4385 21.2188C25.1645 21.2186 24.9018 21.1013 24.708 20.8926C24.5141 20.6838 24.4053 20.4007 24.4053 20.1055C24.4053 19.8102 24.5141 19.5271 24.708 19.3184C24.9018 19.1097 25.1645 18.9923 25.4385 18.9922ZM21.6484 11.5703C23.1689 11.5703 24.4053 12.9016 24.4053 14.5391V16.7656H18.8916V14.5391C18.8916 12.9016 20.1279 11.5703 21.6484 11.5703Z" fill="#D9D9D9"/>
</g>
<defs>
<clipPath id="clip0_127_7266">
<rect width="44" height="44" fill="white" transform="translate(0 0.09375)"/>
</clipPath>
</defs>
</svg>
