<svg width="25" height="24" viewBox="0 0 25 24" fill="none" xmlns="http://www.w3.org/2000/svg">
<g clip-path="url(#clip0_138_9048)">
<path fill-rule="evenodd" clip-rule="evenodd" d="M21.0031 3.48501C18.7473 1.23878 15.7471 0.00113964 12.5504 0C5.9634 0 0.602564 5.33065 0.600272 11.883C0.599126 13.9776 1.14976 16.0221 2.19546 17.8239L0.5 23.9825L6.83491 22.33C8.5802 23.2771 10.5455 23.7756 12.5453 23.7762H12.5504C19.1363 23.7762 24.4977 18.445 24.5 11.8927C24.5011 8.7171 23.2595 5.7318 21.0031 3.48558V3.48501ZM12.5504 21.7693H12.5464C10.7644 21.7688 9.01627 21.2924 7.491 20.3926L7.12828 20.1784L3.36893 21.159L4.37223 17.5139L4.13615 17.1401C3.14203 15.5674 2.6166 13.7497 2.61775 11.8836C2.62004 6.43781 7.07556 2.0069 12.5545 2.0069C15.2073 2.00804 17.701 3.03656 19.5763 4.90386C21.4517 6.77059 22.4837 9.25273 22.4825 11.8915C22.4802 17.3379 18.0247 21.7688 12.5504 21.7688V21.7693ZM17.9983 14.372C17.6998 14.2232 16.2319 13.5052 15.9579 13.4061C15.6841 13.3069 15.4853 13.2574 15.2864 13.5548C15.0876 13.8523 14.5152 14.5213 14.341 14.719C14.1668 14.9173 13.9926 14.9418 13.6941 14.793C13.3956 14.6443 12.4335 14.3309 11.2927 13.3195C10.4052 12.532 9.8058 11.5599 9.63167 11.2624C9.45747 10.965 9.61333 10.8043 9.76227 10.6567C9.89633 10.5234 10.0608 10.3097 10.2103 10.1365C10.3599 9.96325 10.4092 9.83907 10.5089 9.6413C10.6086 9.44301 10.5587 9.26983 10.4843 9.12106C10.4097 8.97235 9.81273 7.51074 9.56347 6.91644C9.32107 6.33752 9.07473 6.41615 8.89193 6.40647C8.71773 6.39792 8.51893 6.39621 8.31953 6.39621C8.12013 6.39621 7.79693 6.47029 7.52307 6.76774C7.2492 7.06515 6.47794 7.78369 6.47794 9.24471C6.47794 10.7057 7.54773 12.1183 7.69727 12.3166C7.8468 12.5149 9.80293 15.5139 12.7979 16.8005C13.5102 17.1065 14.0665 17.2894 14.5003 17.4262C15.2154 17.6524 15.8663 17.6205 16.3808 17.5441C16.9544 17.4587 18.1473 16.8256 18.396 16.1321C18.6447 15.4386 18.6447 14.8437 18.5702 14.7201C18.4957 14.5964 18.2963 14.5218 17.9978 14.3731L17.9983 14.372Z" fill="white"/>
</g>
<defs>
<clipPath id="clip0_138_9048">
<rect width="24" height="24" fill="white" transform="translate(0.5)"/>
</clipPath>
</defs>
</svg>
